<?xml version="1.0" encoding="UTF-8"?>
<svg id="Calque_1" data-name="Calque 1" xmlns="http://www.w3.org/2000/svg" viewBox="0 0 595.28 255.12">
  <defs>
    <style>
      .cls-1 {
        fill: #e42618;
      }

      .cls-2 {
        fill: #273478;
      }
    </style>
  </defs>
  <g id="g1050">
    <path id="path832" class="cls-1" d="M139.4,131.94h-11.49l10.05-13.35h13.63l10.05,13.35h-11.49l-5.38-7.18-5.38,7.18M137.15,183.53v-46.65h15.25v46.57l-15.25.09Z"/>
    <polygon id="polygon834" class="cls-1" points="175.08 183.45 159.83 183.45 159.83 119.4 175.08 119.4 175.08 183.45"/>
    <path id="path836" class="cls-1" d="M194.36,163.89c.26,6.36,3.95,10.54,10.42,10.54,3.66.21,7.08-1.81,8.68-5.11h14.28c-2.78,10.77-12.75,15.42-23.15,15.42-15.16,0-25.47-9.13-25.47-24.75,0-14.26,11.38-24.49,25.12-24.49,16.69,0,25.01,12.56,24.31,28.35h-34.18M213.28,155.36c-.26-5.27-3.95-9.54-9.05-9.54-5.39,0-8.98,3.86-9.87,9.54h18.92Z"/>
    <path id="path838" class="cls-1" d="M265.63,183.45h-6.01v-4.94h-.14c-1.98,4.02-6.66,5.78-11.66,5.78-11.26,0-16.85-8.91-16.85-19.32s5.45-18.97,16.63-18.97c3.74,0,9.12,1.41,11.8,5.73h.14v-18.78h6.08v50.5M248.64,178.98c8.08,0,11.19-6.92,11.19-13.77,0-7.24-3.27-13.86-11.52-13.86s-10.98,7.03-10.98,14.05,3.51,13.49,11.31,13.49v.09Z"/>
    <path id="path840" class="cls-1" d="M302.52,171.85c-1.63,8.06-7.43,12.44-15.63,12.44-11.66,0-17.2-8.06-17.57-19.32,0-10.96,7.22-19.02,17.2-19.02,12.95,0,16.9,12.1,16.55,20.96h-27.39c-.21,6.36,3.41,12,11.38,12,4.95,0,8.41-2.41,9.49-7.13h5.97M296.7,161.58c-.12-5.73-4.81-10.31-10.54-10.31-6.29,0-10.03,4.73-10.45,10.31h20.99Z"/>
    <polygon id="polygon842" class="cls-1" points="354.13 132.77 323.61 132.77 323.61 145.85 350 145.85 350 158.77 323.61 158.77 323.61 183.45 306.94 183.45 306.94 119.4 354.13 119.4 354.13 132.77"/>
    <path id="path844" class="cls-1" d="M357.16,136.88h14.81v8.17h.18c2.25-5.92,7.43-9.06,14.05-9.06,1.18,0,2.36.12,3.51.37v13.89c-1.89-.56-3.86-.86-5.83-.9-7.54,0-11.49,5.27-11.49,11.05v23.05h-15.25v-46.57h.02Z"/>
    <path id="path846" class="cls-1" d="M389.73,151.27c0-5.16,2.78-9.92,7.25-12.47,4.59-2.29,9.68-3.39,14.81-3.21,11.03,0,21.71,2.42,21.71,15.62v20.36c0,3.95,0,8.24,1.76,11.93h-15.35c-.47-1.42-.78-2.9-.9-4.39-4.14,3.9-9.67,5.97-15.35,5.73-8.87,0-15.81-4.46-15.81-14.05,0-15.16,16.49-14.05,27.09-16.14,2.6-.54,4.04-1.44,4.04-4.32,0-3.51-4.22-4.83-7.36-4.83-4.22,0-6.9,1.9-7.62,5.81h-14.26M409.48,175.42c7.25,0,9.68-4.11,9.31-13.72-2.14,1.34-6.1,1.62-9.42,2.51-3.32.9-6.27,2.23-6.27,5.92s2.95,5.27,6.38,5.27v.02Z"/>
    <path id="path848" class="cls-1" d="M439.07,136.88h14.81v6.38h.18c2.78-4.76,9.05-7.71,14.61-7.71,15.53,0,16.78,11.29,16.78,18.04v29.86h-15.25v-22.5c0-6.38.72-12.84-7.62-12.84-5.74,0-8.26,4.85-8.26,9.96v25.38h-15.25v-46.57Z"/>
    <path id="path850" class="cls-1" d="M521.42,153.94c-.24-3.89-3.54-6.87-7.43-6.73-8.54,0-9.89,7.27-9.89,13.74,0,6.01,2.62,12.19,9.06,12.19,5.27,0,8.01-3.06,8.7-7.97h14.81c-1.34,12.45-11.07,19.62-23.36,19.62-14.05,0-24.4-9.59-24.4-23.84s9.42-25.4,24.4-25.4c11.58,0,21.9,6.1,22.98,18.39h-14.86Z"/>
    <path id="path852" class="cls-1" d="M552.83,163.89c.26,6.36,3.93,10.54,10.4,10.54,3.67.21,7.1-1.81,8.7-5.11h14.28c-2.79,10.77-12.75,15.42-23.15,15.42-15.16,0-25.49-9.13-25.49-24.75,0-14.26,11.4-24.49,25.12-24.49,16.69,0,25.03,12.56,24.31,28.35h-34.17M571.75,155.36c-.26-5.27-3.95-9.54-9.06-9.54-5.38,0-8.96,3.86-9.85,9.54h18.92Z"/>
  </g>
  <g id="g1037">
    <path id="path854" class="cls-2" d="M137.15,53.72h25.73c10.26,0,16.62,5.59,16.62,14.32,0,6.59-2.92,12.03-9.5,13.86v.16c6.36,1.23,7.66,5.9,8.2,11.26s.14,11.33,3.21,15.09h-8.12c-2.07-2.23-.93-8.13-2-13.49-.76-5.36-2.06-9.87-9.12-9.87h-17.76v23.36h-7.27v-54.68ZM159.58,78.91c6.82,0,12.65-1.76,12.65-9.71,0-5.38-2.92-9.35-9.73-9.35h-18.08v19.06h15.16Z"/>
    <path id="path856" class="cls-2" d="M222.31,95.84c-1.76,8.78-8.05,13.47-16.93,13.47-12.63,0-18.6-8.78-18.99-20.83,0-11.87,7.82-20.6,18.62-20.6,14.05,0,18.3,13.1,17.92,22.68h-29.63c-.23,6.89,3.67,13.02,12.3,13.02,5.27,0,9.1-2.6,10.26-7.73h6.46ZM216.02,84.81c-.11-6.22-5.18-11.2-11.4-11.19-6.82,0-10.87,5.13-11.33,11.19h22.73ZM206.15,52.42h8.34l-10.03,11.01h-4.9l6.59-11.01Z"/>
    <path id="path858" class="cls-2" d="M263.87,105.03c0,12.86-5.9,19.45-18.37,19.45-7.43,0-16-2.99-16.39-11.65h6.5c.32,4.76,5.97,6.45,10.26,6.45,8.5,0,11.87-6.13,11.87-15.02v-2.6h-.16c-2.33,4.6-7.14,7.42-12.3,7.2-11.8,0-17.69-9.27-17.69-20.06,0-9.35,4.58-20.92,18.29-20.92,4.86-.2,9.42,2.35,11.8,6.59h0v-5.66h6.18v36.22ZM257.44,87.8c0-7.03-3.07-14.18-11.26-14.18s-11.72,6.82-11.72,14.4c0,7.03,2.6,15.09,11.17,15.09s11.75-7.89,11.75-15.32h.05Z"/>
    <path id="path860" class="cls-2" d="M280.51,61.68h-6.5v-7.96h6.5v7.96ZM274.01,68.81h6.5v39.59h-6.5v-39.59Z"/>
    <path id="path862" class="cls-2" d="M307.79,67.88c12.56,0,19.22,9.12,19.22,20.76s-6.75,20.68-19.22,20.68-19.32-9.12-19.32-20.68,6.68-20.76,19.32-20.76ZM307.79,103.57c6.82,0,12.3-5.27,12.3-14.93s-5.52-15.02-12.3-15.02-12.3,5.38-12.3,15.02,5.39,14.93,12.3,14.93Z"/>
    <path id="path864" class="cls-2" d="M334.59,68.81h6.11v6.27h.16c2.54-4.68,7.54-7.49,12.86-7.2,10.42,0,13.63,5.97,13.63,14.47v26.05h-6.5v-26.81c.29-4.11-2.8-7.69-6.91-7.98-.38-.03-.76-.03-1.13,0-7.89,0-11.72,5.27-11.72,12.42v22.36h-6.5v-39.59Z"/>
  </g>
  <path id="path866" class="cls-1" d="M86.23,100.75c-.5.15-1,.33-1.48.54-.11,0-.19,0-.18-.14.12-.47-2.06,1.55-2.16.77,0-.14.11,0-.19,0,.79.11-4.88,1.9-4.88,1.76-.3-.56-.24-1.25.14-1.76.46-1.14-.97-2.74-.42-2.27-.32-.25-.38-.72-.12-1.04.04-.05.08-.09.12-.12.25.18,0,0,.14-.54.16-.11-.3-.72.11-.51.68-1.04.87-2.32.53-3.51-.93-2.18-.53-17.81,0-17.21.16-1.09-.84-1.88-.37-2.69,0-.83-.74-.84-.63-1.41-.42-1.65-2.74-1.62-2.49-1.97-1.23.26-5.76,7.55-5.8,7.75.28-.28-3.07,4.74-3,4.76-.37,0-.77.58-.86,1.34,0,.09-1.9,2.39-1.76,1.93-.65,1.07-1.41,2.09-1.98,3.18.46-.28-.83.9-.63.86.19-.04-1.44,3.51-1.46,3.21s-1.76,1.76-2.02,1.76c-.4,1.67-6.59-2.42-6.71-4.29,0,0-.12-1.76-.95-1.93l-4.04-3.67c-2.49-3.32-4.46-3.23-8.13-6.45-.38-.96-.88-1.88-1.48-2.72-1.39.35-3.27,2.51-2.88,3.04-.58.25-.7-.49-.93-.76.06,1.85.27,3.7.61,5.52-.09.69.32,4.18.47,3.65l.26.3s-.42.53,0,.86c.58,1,1.76,1.76,1.32,3.09-.51.26,0,2.09,0,1.49-.56,2.88,6.2,8.31,5.27,12.16-.44.33,1.3,2.39.93,2.28-1.04.75-2.24,1.25-3.51,1.46-.35.21-.72,0-1.11,0s-3.51-1.34-4.3-.76c0,0-2.55-.58-2.56-.46.46-.53-2.88.7-2.37-.39.21-.84-2.9.9-2.13.44,0,0-1.37.76-1.34.54.04-.21-1.18,0-.88,0-.21,0-1.53-.44-1.34-.3-.72-.49-.88.18-1.76-.25-.39.15-.81.21-1.23.18h-1.93s-1.65.53-1.76,0c0,0-1.42,1.05-1.84.35.18-.58-1.76.47-1.98.51-.23.04-1.16-.46-.98-.16-.16,0-1.32,1.51-1.32,1.51,0,0,6.41,4.73,5.43,3.99.73.56,1.5,1.07,2.3,1.53-.26.69,2.39,0,1.97,1.53,2.46-1.44,7.5,5.27,9.27,4.27.23,0,.98,1.18,1.23,1.09-.4-.35,1.28.56.76.53.23.26.14.18.95,1,2.02,0,2.86,1.58,3.51,2.14,2.21,4.25-7.03,8.38-7.78,10.54,0,.12,0,.21-.16.18s-1.28.6-1.44,1.28l-1.39,1.76c-1.21-.35-4.34,4.58-5.6,5.27l-2.99,1.37c-.26.26-.49.54-.7.84-.24.43-.58.78-1,1.04-.74.61-1.44,1.25-2.11,1.93l-.47.88.76.33c-.22.24-.41.52-.56.81-.11.21-.37.83.21.95.58.12.95.14,1.09.42.14.28,2.55.47,2.74.44l1.37-.6c1.78-.39,3.62-.39,5.39,0,1.94-.42,3.84-1.01,5.67-1.76.18,0,3.51-1.14,3.51-1.14.9-.42,2.93-.76,3.51-1.49,1.11-.48,2.31-.67,3.51-.54.28.16,8.12-1.48,8.38-2.48.37.05.66.32.74.69.04,1.48-.06,2.95-.28,4.41,0-.4-1.11.76-.72,1.37.79.25.74,0,1.23,1.11-.23-.51,0,2.34,0,3.36,0,.54.9,2.37-.54,3.07,0,0-.83,1.76-.86,1.76.11-.84.11.42,0,.19.74-.35.51,1.9.35,2.16.14-.35-.39.44-.44.18-1.18,2.32,1.3,2.56-.12,2.83.61.19.93,3.27.9,2.83.14,1.01.05,2.05-.26,3.02-.21-.65-.56,1.18-.46,1.76.25,1.16-.33,3.36.77,3.86-.18-.46.83,1.05.83,1.05,2.58,1.09,3.21-2.28,4.37-2.83.39,0,.83-1.63,1.21-1.51,0-.12,1.58-7.55,2.78-7.17.91-1.4,1.72-2.85,2.42-4.36,0,.09-.98-1.07,1.07-1.97,1,.35,1.48-2.34,1.76-3.85,0-.88.69-.46.77-1.39.88-1.21,1.58-2.54,2.07-3.95.3,0,.33-1.37.54-1.18-.56-.49.47-1.05.35-1.48.19-.74.12-1.41.44-1.34.32-1.44,1.21-.81,1.41-.69s1.02-.12,1.09.93c-.4.54,1.34,1.04,1.19,1.37,0-.25,8.36,9.66,10.68,11.58.11.09,6.62,6.55,6.34,6.48.72.39,1.32,1.76,1.37,1.6-.28.42,1.25,1.11,1.51,1.11.98,1.76,1.04,1.37,1.56,1.07.18.77,1.48.4,1.95.65-.14-.37,1.04-.7.77-1.11.37.12-.23-1.41,0-1.21-.4-.74-2.88-4.02-2.71-4.62,0-.19.35-.12.53,0s-.32-.39-.47-.53c.46,0,.54-.25.3-.72-.44.23-1.05-2.56-.67-2.97.16-.7-2.02-9.49-3.04-10.35-.06-.82-.2-1.62-.44-2.41-1.76-1.07-.28-3.18-1.46-3.51-.28.53-1.49-1.48-1.67-3.13-.58-1.04,0-3.51-.39-3.14-.33-.39,1.76-1.28,2.28-.14,4.43,1.76,12.88-1.09,15.93,1.26.72-1.35,2.35-.3,1.48-.54-.12.16.16.25.35.3,1.16-.19,2.35-.19,3.51,0-1.3-.32,1.91-.11,1.76-.16,2.07-.19,4.08-.78,5.92-1.76,1.32-.4,1.07-1.09,1.63-2.34-.23,1.05.33-1.07-.77-1.76-6.46-1.62-11.61-6.39-18.06-8.08-2.49-.53-6.53-6.64-8.68-6.25,3.9-4.46,7.69-8.89,11.72-12.66.79-.77,8.78-9.47,8.78-9.36.32-.44.76-1.88.72-1.26,0-.29-.11-.57-.3-.79,0,.11-3.02-2.25-3.81-.77,1.07.65-2.14.88-2.93,1.07-.2.09-.43.09-.63,0-.81-.19-1.86.72-2.39.84-1.18-1.05-4.15.9-5.48,1.35-.54-.02-1.08-.07-1.62-.14-.46.74-.44.53-.33.46-.7.47-1.47.83-2.28,1.07.18,0-1,.56-1.46.46,0,.19-.18.76-.86.61-.69-.14-.46-.33-.65-.12"/>
</svg>