<?xml version="1.0" encoding="UTF-8"?>
<svg id="Calque_1" data-name="Calque 1" xmlns="http://www.w3.org/2000/svg" xmlns:xlink="http://www.w3.org/1999/xlink" viewBox="0 0 595.28 255.12">
  <defs>
    <style>
      .cls-1 {
        clip-path: url(#clippath-6);
      }

      .cls-2 {
        clip-path: url(#clippath-7);
      }

      .cls-3 {
        clip-path: url(#clippath-4);
      }

      .cls-4 {
        fill: url(#Dégradé_sans_nom_6);
      }

      .cls-5 {
        fill: #e31d29;
      }

      .cls-6 {
        fill: none;
      }

      .cls-7 {
        clip-path: url(#clippath-1);
      }

      .cls-8 {
        clip-path: url(#clippath-5);
      }

      .cls-9 {
        clip-path: url(#clippath-3);
      }

      .cls-10 {
        fill: url(#Dégradé_sans_nom_4);
      }

      .cls-11 {
        fill: url(#Dégradé_sans_nom_3);
      }

      .cls-12 {
        fill: #1f3b76;
      }

      .cls-13 {
        fill: url(#Dégradé_sans_nom_5);
      }

      .cls-14 {
        clip-path: url(#clippath-2);
      }

      .cls-15 {
        clip-path: url(#clippath);
      }
    </style>
    <clipPath id="clippath">
      <path class="cls-6" d="M325.25,36.5c-6.37,2.49-11.67,6.04-15.98,10.67-4.32,4.64-7.63,10.2-9.89,16.74-2.28,6.55-3.42,13.66-3.42,21.37.01,16.41,4.62,29.15,13.78,38.56,9.15,9.39,21.92,14.13,38.71,14.14,7.16,0,13.47-.92,18.93-2.72,9.99-3.52,21.23-13.49,23.14-22.88,1.25-6.15-2.51-7.48-4.54-7.76-.39-.04-.79-.07-1.21-.07-2.31,0-4.15.75-5.32,1.81-1.4,1.29-5.49,5.12-7.59,6.96-2.14,1.87-4.47,3.62-6.99,5.25-2.58,1.67-5.28,2.91-8.06,3.7-2.79.79-5.84,1.18-9.14,1.18-4.99,0-9.63-1.25-13.79-3.73-4.2-2.49-7.56-6.22-10.03-11.05-2.31-4.47-3.54-9.57-3.78-15.22-.06-1.89,1.37-3.01,3.04-3.01h50.45c6.81,0,11.96-.99,15.46-2.8,3.11-1.61,4.87-5.17,4.9-11.63,0-6.94-1.77-13.75-5.37-20.51-3.57-6.68-8.9-12.13-16.12-16.39-7.16-4.22-15.77-6.36-25.94-6.36-7.82,0-14.89,1.26-21.25,3.74M363.54,55.43c4.4,4.69,6.88,11.51,7.66,20.27.11,1.46-1.44,2.75-3.01,2.75h-44.99c-1.64-.01-3.27-1.33-3.01-2.94,1.04-8.56,3.63-15.29,7.98-19.97,4.52-4.89,10.48-7.38,17.45-7.37,7.27-.02,13.38,2.42,17.92,7.26Z"/>
    </clipPath>
    <clipPath id="clippath-1">
      <rect class="cls-6" x="295.95" y="32.76" width="97.97" height="105.24"/>
    </clipPath>
    <radialGradient id="Dégradé_sans_nom_6" data-name="Dégradé sans nom 6" cx=".22" cy="255.39" fx=".22" fy="255.39" r=".51" gradientTransform="translate(246.12 93773.49) scale(366.86 -367.03)" gradientUnits="userSpaceOnUse">
      <stop offset="0" stop-color="#e65e1c"/>
      <stop offset=".05" stop-color="#e65e1c"/>
      <stop offset=".35" stop-color="#e52629"/>
      <stop offset="1" stop-color="#a61a1a"/>
    </radialGradient>
    <clipPath id="clippath-2">
      <path class="cls-6" d="M225.38,85.39c0,43.96,35.61,79.59,79.55,79.59s79.55-35.63,79.55-79.59S348.86,5.79,304.93,5.79s-79.55,35.63-79.55,79.59h0Z"/>
    </clipPath>
    <clipPath id="clippath-3">
      <rect class="cls-6" x="225.37" y="5.8" width="159.11" height="159.18"/>
    </clipPath>
    <linearGradient id="Dégradé_sans_nom_5" data-name="Dégradé sans nom 5" x1="-.23" y1="255.45" x2=".28" y2="255.45" gradientTransform="translate(-79762.68 76.68) rotate(90) scale(313.59 -313.44)" gradientUnits="userSpaceOnUse">
      <stop offset="0" stop-color="#6ac7e6"/>
      <stop offset=".05" stop-color="#6ac7e6"/>
      <stop offset=".41" stop-color="#184889"/>
      <stop offset="1" stop-color="#131a2e"/>
    </linearGradient>
    <clipPath id="clippath-4">
      <path class="cls-6" d="M231.3,77.9c-1.18,11.6.4,22.86,4.2,33.11,14.08-32.7,49.5-33.47,76.62-23.91,32.6,6.72,69.83,5.18,64.52-19.12-6.08-28.11-31.05-52.88-64.23-56.25-2.53-.26-5.05-.39-7.54-.39-37.47,0-69.71,28.48-73.57,66.57h0Z"/>
    </clipPath>
    <clipPath id="clippath-5">
      <rect class="cls-6" x="248.77" y="-19.39" width="114.52" height="161.13" transform="translate(214.25 359.46) rotate(-84.2)"/>
    </clipPath>
    <linearGradient id="Dégradé_sans_nom_3" data-name="Dégradé sans nom 3" x1="-.41" y1="255.54" x2=".1" y2="255.54" gradientTransform="translate(-53046.77 -5326.71) rotate(95.8) scale(209.94 -209.84)" gradientUnits="userSpaceOnUse">
      <stop offset="0" stop-color="#9dd7f3"/>
      <stop offset="1" stop-color="#1d3764"/>
    </linearGradient>
    <clipPath id="clippath-6">
      <path class="cls-6" d="M325.25,36.5c-6.37,2.49-11.67,6.04-15.98,10.67-4.32,4.64-7.63,10.2-9.89,16.74-2.28,6.55-3.42,13.66-3.42,21.37.01,16.41,4.62,29.15,13.78,38.56,9.15,9.39,21.92,14.13,38.71,14.14,6.91,0,13-.86,18.32-2.53,7.14-8.81,12.43-19.18,15.29-30.51-1.06.32-1.95.81-2.61,1.42-1.4,1.29-5.49,5.12-7.59,6.96-2.14,1.87-4.47,3.62-6.99,5.25-2.58,1.67-5.28,2.91-8.06,3.7-2.79.79-5.84,1.18-9.14,1.18-4.99,0-9.63-1.25-13.79-3.73-4.2-2.49-7.56-6.22-10.03-11.05-2.31-4.47-3.54-9.57-3.78-15.22-.06-1.89,1.37-3.01,3.04-3.01h50.45c4.25,0,7.86-.39,10.82-1.11.06-1.31.1-2.63.1-3.95,0-18.27-6.16-35.1-16.5-48.53-6.2-2.71-13.34-4.09-21.48-4.09-7.82,0-14.89,1.26-21.25,3.74M363.54,55.43c4.4,4.69,6.88,11.51,7.66,20.27.11,1.46-1.44,2.75-3.01,2.75h-44.99c-1.64-.01-3.27-1.33-3.01-2.94,1.04-8.56,3.63-15.29,7.98-19.97,4.52-4.89,10.48-7.38,17.45-7.37,7.27-.02,13.38,2.42,17.92,7.26Z"/>
    </clipPath>
    <clipPath id="clippath-7">
      <rect class="cls-6" x="295.95" y="32.76" width="88.53" height="105.23"/>
    </clipPath>
    <radialGradient id="Dégradé_sans_nom_4" data-name="Dégradé sans nom 4" cx=".37" cy="255.63" fx=".37" fy="255.63" r=".51" gradientTransform="translate(251.96 53850.21) scale(210.38 -210.48)" gradientUnits="userSpaceOnUse">
      <stop offset="0" stop-color="#fff"/>
      <stop offset=".25" stop-color="#fff"/>
      <stop offset=".46" stop-color="#fff"/>
      <stop offset="1" stop-color="#cedde3"/>
    </radialGradient>
  </defs>
  <g id="g10">
    <g id="g4614">
      <g id="g4588">
        <g id="g100">
          <g class="cls-15">
            <g id="g102">
              <g id="g108">
                <g id="g110">
                  <g class="cls-7">
                    <g id="g112">
                      <path id="path128" class="cls-4" d="M325.25,36.5c-6.37,2.49-11.67,6.04-15.98,10.67h0c-4.32,4.64-7.63,10.2-9.89,16.74h0c-2.28,6.55-3.42,13.66-3.42,21.37h0c.01,16.41,4.62,29.15,13.78,38.56h0c9.15,9.39,21.92,14.13,38.71,14.14h0c7.16,0,13.47-.92,18.93-2.72h0c9.99-3.52,21.23-13.49,23.14-22.88h0c1.25-6.15-2.51-7.48-4.54-7.76h0c-.39-.04-.79-.07-1.21-.07h0c-2.31,0-4.15.75-5.32,1.81h0c-1.4,1.29-5.49,5.12-7.59,6.96h0c-2.14,1.87-4.47,3.62-6.99,5.25h0c-2.58,1.67-5.28,2.91-8.06,3.7h0c-2.79.79-5.84,1.18-9.14,1.18h0c-4.99,0-9.63-1.25-13.79-3.73h0c-4.2-2.49-7.56-6.22-10.03-11.05h0c-2.31-4.47-3.54-9.57-3.78-15.22h0c-.06-1.89,1.37-3.01,3.04-3.01h50.45c6.81,0,11.96-.99,15.46-2.8h0c3.11-1.61,4.87-5.17,4.9-11.63h0c0-6.94-1.77-13.75-5.37-20.51h0c-3.57-6.68-8.9-12.13-16.12-16.39h0c-7.16-4.22-15.77-6.36-25.94-6.36h0c-7.82,0-14.89,1.26-21.25,3.74M363.54,55.43c4.4,4.69,6.88,11.51,7.66,20.27h0c.11,1.46-1.44,2.75-3.01,2.75h-44.99c-1.64-.01-3.27-1.33-3.01-2.94h0c1.04-8.56,3.63-15.29,7.98-19.97h0c4.52-4.89,10.48-7.38,17.45-7.37h0c7.27-.02,13.38,2.42,17.92,7.26"/>
                    </g>
                  </g>
                </g>
              </g>
            </g>
          </g>
        </g>
        <g id="g130">
          <g class="cls-14">
            <g id="g132">
              <g id="g138">
                <g id="g140">
                  <g class="cls-9">
                    <g id="g142">
                      <path id="path158" class="cls-13" d="M225.38,85.39c0,43.96,35.61,79.59,79.55,79.59h0c43.94,0,79.55-35.63,79.55-79.59h0c0-43.96-35.61-79.59-79.55-79.59h0c-43.94,0-79.55,35.63-79.55,79.59"/>
                    </g>
                  </g>
                </g>
              </g>
            </g>
          </g>
        </g>
        <g id="g160">
          <g class="cls-3">
            <g id="g162">
              <g id="g168">
                <g id="g170">
                  <g class="cls-8">
                    <g id="g172">
                      <path id="path184" class="cls-11" d="M231.3,77.9c-1.18,11.6.4,22.86,4.2,33.11h0c14.08-32.7,49.5-33.47,76.62-23.91h0c32.6,6.72,69.83,5.18,64.52-19.12h0c-6.08-28.11-31.05-52.88-64.23-56.25h0c-2.53-.26-5.05-.39-7.54-.39h0c-37.47,0-69.71,28.48-73.57,66.57"/>
                    </g>
                  </g>
                </g>
              </g>
            </g>
          </g>
        </g>
        <g id="g186">
          <g class="cls-1">
            <g id="g188">
              <g id="g194">
                <g id="g196">
                  <g class="cls-2">
                    <g id="g198">
                      <path id="path214" class="cls-10" d="M309.26,47.18c-4.32,4.64-7.62,10.2-9.9,16.74-2.27,6.54-3.42,13.65-3.42,21.36h0c.01,16.41,4.62,29.15,13.78,38.56h0c9.15,9.39,21.92,14.13,38.71,14.14h0c6.91,0,13-.86,18.32-2.53h0c7.14-8.81,12.43-19.18,15.29-30.51h0c-1.06.32-1.95.81-2.98,1.76-1.04.95-5.12,4.78-7.24,6.64-2.12,1.85-4.45,3.6-7,5.25-2.56,1.65-5.25,2.89-8.03,3.68s-5.84,1.18-9.98,1.18c-4.14,0-8.78-1.25-12.96-3.73-4.18-2.49-7.54-6.21-9.93-10.86s-3.62-9.75-3.86-15.4h0c-.06-1.89,1.37-3.01,2.21-3.01h51.29c4.25,0,7.86-.39,10.82-1.11h0c.06-1.31.1-2.63.1-3.95h0c0-18.27-6.16-35.1-16.5-48.53h0c-6.2-2.71-13.34-4.09-21.32-4.09-7.98,0-15.05,1.26-21.41,3.74-6.37,2.49-11.67,6.04-15.99,10.68h0ZM371.2,75.71h0c.11,1.46-1.44,2.75-3.01,2.75h-44.99c-1.64-.01-3.27-1.33-3.01-2.94h0c1.04-8.56,3.63-15.29,8.07-20.07,4.43-4.79,10.39-7.28,17.51-7.28s13.24,2.43,17.77,7.28c4.4,4.69,6.88,11.51,7.66,20.27Z"/>
                    </g>
                  </g>
                </g>
              </g>
            </g>
          </g>
        </g>
      </g>
      <g id="g4564">
        <g id="g4540">
          <path id="path226" class="cls-12" d="M174.71,219.5c0-3.42-.51-5.9-1.52-7.42-1.28-1.9-3.48-2.85-6.6-2.85s-5.31.95-6.55,2.85c-1.02,1.52-1.52,4-1.52,7.42v10.22h8.07c3.12,0,5.32-.93,6.6-2.79,1.02-1.56,1.52-4.04,1.52-7.42M180.58,219.5c0,11.15-4.66,16.73-13.99,16.73h-8.07v13.22h-5.87v-29.94c0-11.2,4.64-16.8,13.94-16.8s13.99,5.6,13.99,16.79"/>
          <path id="path230" class="cls-12" d="M206.66,219.5c0-3.42-.5-5.9-1.51-7.42-1.23-1.9-3.4-2.85-6.5-2.85s-5.29.95-6.56,2.85c-1.01,1.52-1.51,4-1.51,7.42s.51,5.86,1.51,7.42c1.27,1.86,3.46,2.79,6.56,2.79s5.27-.93,6.5-2.79c1.01-1.52,1.51-3.99,1.51-7.42M210.39,196.32l-2.65,3.6-9.37-5.31-9.37,5.31-2.65-3.6,12.02-6.83,12.02,6.83ZM212.58,219.5c0,11.15-4.65,16.73-13.94,16.73s-13.99-5.58-13.99-16.73,4.66-16.79,13.99-16.79,13.94,5.6,13.94,16.79"/>
          <path id="path234" class="cls-12" d="M232.33,236.23c-10.01,0-15.01-4.05-15.01-12.14v-34.6h5.87v34.66c0,1.73.53,3.02,1.58,3.86,1.39,1.14,3.91,1.71,7.56,1.71v6.52Z"/>
          <path id="path256" class="cls-12" d="M254.92,212.44c-1.05-2.48-3.39-4.18-6.53-4.18s-5.55,1.7-6.6,4.18c-.65,1.5-.78,2.48-.85,4.51h14.89c-.06-2.03-.26-3.01-.91-4.51M240.94,221.59c0,5.68,3.01,9.28,8.43,9.28,3.73,0,5.68-1.05,8.03-3.4l4.24,3.99c-3.39,3.4-6.59,5.16-12.41,5.16-8.3,0-14.89-4.38-14.89-16.99,0-10.72,5.55-16.93,14.04-16.93s14.04,6.53,14.04,15.94v2.94h-21.49Z"/>
          <path id="path264" class="cls-12" d="M174.71,219.5c0-3.42-.51-5.9-1.52-7.42-1.28-1.9-3.48-2.85-6.6-2.85s-5.31.95-6.55,2.85c-1.02,1.52-1.52,4-1.52,7.42v10.22h8.07c3.12,0,5.32-.93,6.6-2.79,1.02-1.56,1.52-4.04,1.52-7.42M180.58,219.5c0,11.15-4.66,16.73-13.99,16.73h-8.07v13.22h-5.87v-29.94c0-11.2,4.64-16.8,13.94-16.8s13.99,5.6,13.99,16.79"/>
          <path id="path268" class="cls-12" d="M206.66,219.5c0-3.42-.5-5.9-1.51-7.42-1.23-1.9-3.4-2.85-6.5-2.85s-5.29.95-6.56,2.85c-1.01,1.52-1.51,4-1.51,7.42s.51,5.86,1.51,7.42c1.27,1.86,3.46,2.79,6.56,2.79s5.27-.93,6.5-2.79c1.01-1.52,1.51-3.99,1.51-7.42M210.39,196.32l-2.65,3.6-9.37-5.31-9.37,5.31-2.65-3.6,12.02-6.83,12.02,6.83ZM212.58,219.5c0,11.15-4.65,16.73-13.94,16.73s-13.99-5.58-13.99-16.73,4.66-16.79,13.99-16.79,13.94,5.6,13.94,16.79"/>
          <path id="path272" class="cls-12" d="M232.33,236.23c-10.01,0-15.01-4.05-15.01-12.14v-34.6h5.87v34.66c0,1.73.53,3.02,1.58,3.86,1.39,1.14,3.91,1.71,7.56,1.71v6.52Z"/>
          <path id="path294" class="cls-12" d="M254.92,212.44c-1.05-2.48-3.39-4.18-6.53-4.18s-5.55,1.7-6.6,4.18c-.65,1.5-.78,2.48-.85,4.51h14.89c-.06-2.03-.26-3.01-.91-4.51M240.94,221.59c0,5.68,3.01,9.28,8.43,9.28,3.73,0,5.68-1.05,8.03-3.4l4.24,3.99c-3.39,3.4-6.59,5.16-12.41,5.16-8.3,0-14.89-4.38-14.89-16.99,0-10.72,5.55-16.93,14.04-16.93s14.04,6.53,14.04,15.94v2.94h-21.49Z"/>
        </g>
        <g id="g4550">
          <path id="path238" class="cls-5" d="M365.39,236.23h-5.87v-16.76c0-3.42-.51-5.88-1.52-7.4-1.28-1.9-3.48-2.85-6.6-2.85s-5.31.95-6.55,2.85c-1.02,1.52-1.52,3.98-1.52,7.4v16.76h-5.87v-16.76c0-3.42-.51-5.88-1.52-7.4-1.28-1.9-3.48-2.85-6.61-2.85s-5.3.95-6.55,2.85c-1.01,1.52-1.52,3.98-1.52,7.4v16.76h-5.87v-16.73c0-11.2,4.64-16.79,13.93-16.79,4.97,0,8.65,1.69,11.06,5.06,2.37-3.37,6.04-5.06,11.01-5.06,9.33,0,13.99,5.6,13.99,16.79v16.73Z"/>
          <path id="path242" class="cls-5" d="M392.2,219.5c0-3.42-.51-5.9-1.52-7.42-1.28-1.9-3.48-2.85-6.6-2.85s-5.31.95-6.55,2.85c-1.02,1.52-1.52,4-1.52,7.42v10.22h8.07c3.12,0,5.33-.93,6.6-2.79,1.02-1.56,1.52-4.04,1.52-7.42M398.07,219.5c0,11.15-4.67,16.73-14,16.73h-8.07v13.22h-5.87v-29.94c0-11.2,4.65-16.8,13.94-16.8s14,5.6,14,16.79"/>
          <path id="path246" class="cls-5" d="M417.37,236.23c-10.01,0-15.01-4.05-15.01-12.14v-34.6h5.87v34.66c0,1.73.53,3.02,1.58,3.86,1.39,1.14,3.91,1.71,7.56,1.71v6.52Z"/>
          <path id="path250" class="cls-5" d="M441.12,219.5c0-3.42-.51-5.9-1.52-7.42-1.24-1.9-3.42-2.85-6.55-2.85s-5.31.95-6.55,2.85c-1.02,1.52-1.52,4-1.52,7.42s.51,5.9,1.52,7.42c1.24,1.86,3.42,2.79,6.55,2.79s5.31-.93,6.55-2.79c1.02-1.52,1.52-3.99,1.52-7.42M446.99,219.5c0,11.15-4.65,16.73-13.94,16.73s-14-5.58-14-16.73,4.67-16.79,14-16.79,13.94,5.6,13.94,16.79"/>
          <path id="path252" class="cls-5" d="M451.34,202.71h5.87v33.52h-5.87v-33.52ZM457.21,196h-5.87v-6.52h5.87v6.52Z"/>
          <path id="path260" class="cls-5" d="M303.18,212.44c-1.05-2.48-3.39-4.18-6.53-4.18s-5.55,1.7-6.6,4.18c-.65,1.5-.78,2.48-.85,4.51h14.89c-.06-2.03-.26-3.01-.91-4.51M289.21,221.59c0,5.68,3,9.28,8.43,9.28,3.73,0,5.68-1.05,8.03-3.4l4.25,3.99c-3.4,3.4-6.6,5.16-12.41,5.16-8.3,0-14.89-4.38-14.89-16.99,0-10.72,5.55-16.93,14.04-16.93s14.04,6.53,14.04,15.94v2.94h-21.49Z"/>
          <path id="path276" class="cls-5" d="M365.39,236.23h-5.87v-16.76c0-3.42-.51-5.88-1.52-7.4-1.28-1.9-3.48-2.85-6.6-2.85s-5.31.95-6.55,2.85c-1.02,1.52-1.52,3.98-1.52,7.4v16.76h-5.87v-16.76c0-3.42-.51-5.88-1.52-7.4-1.28-1.9-3.48-2.85-6.61-2.85s-5.3.95-6.55,2.85c-1.01,1.52-1.52,3.98-1.52,7.4v16.76h-5.87v-16.73c0-11.2,4.64-16.79,13.93-16.79,4.97,0,8.65,1.69,11.06,5.06,2.37-3.37,6.04-5.06,11.01-5.06,9.33,0,13.99,5.6,13.99,16.79v16.73Z"/>
          <path id="path280" class="cls-5" d="M392.2,219.5c0-3.42-.51-5.9-1.52-7.42-1.28-1.9-3.48-2.85-6.6-2.85s-5.31.95-6.55,2.85c-1.02,1.52-1.52,4-1.52,7.42v10.22h8.07c3.12,0,5.33-.93,6.6-2.79,1.02-1.56,1.52-4.04,1.52-7.42M398.07,219.5c0,11.15-4.67,16.73-14,16.73h-8.07v13.22h-5.87v-29.94c0-11.2,4.65-16.8,13.94-16.8s14,5.6,14,16.79"/>
          <path id="path284" class="cls-5" d="M417.37,236.23c-10.01,0-15.01-4.05-15.01-12.14v-34.6h5.87v34.66c0,1.73.53,3.02,1.58,3.86,1.39,1.14,3.91,1.71,7.56,1.71v6.52Z"/>
          <path id="path288" class="cls-5" d="M441.12,219.5c0-3.42-.51-5.9-1.52-7.42-1.24-1.9-3.42-2.85-6.55-2.85s-5.31.95-6.55,2.85c-1.02,1.52-1.52,4-1.52,7.42s.51,5.9,1.52,7.42c1.24,1.86,3.42,2.79,6.55,2.79s5.31-.93,6.55-2.79c1.02-1.52,1.52-3.99,1.52-7.42M446.99,219.5c0,11.15-4.65,16.73-13.94,16.73s-14-5.58-14-16.73,4.67-16.79,14-16.79,13.94,5.6,13.94,16.79"/>
          <path id="path290" class="cls-5" d="M451.34,202.71h5.87v33.52h-5.87v-33.52ZM457.21,196h-5.87v-6.52h5.87v6.52Z"/>
          <path id="path298" class="cls-5" d="M303.18,212.44c-1.05-2.48-3.39-4.18-6.53-4.18s-5.55,1.7-6.6,4.18c-.65,1.5-.78,2.48-.85,4.51h14.89c-.06-2.03-.26-3.01-.91-4.51M289.21,221.59c0,5.68,3,9.28,8.43,9.28,3.73,0,5.68-1.05,8.03-3.4l4.25,3.99c-3.4,3.4-6.6,5.16-12.41,5.16-8.3,0-14.89-4.38-14.89-16.99,0-10.72,5.55-16.93,14.04-16.93s14.04,6.53,14.04,15.94v2.94h-21.49Z"/>
        </g>
      </g>
    </g>
  </g>
</svg>