<?xml version="1.0" encoding="UTF-8"?>
<svg id="Calque_1" data-name="Calque 1" xmlns="http://www.w3.org/2000/svg" viewBox="0 0 595.28 255.12">
  <defs>
    <style>
      .cls-1 {
        fill: #e00814;
      }

      .cls-2 {
        fill: #0e8ece;
      }

      .cls-3 {
        fill: #ffe00a;
      }

      .cls-4 {
        fill: #f29fc5;
      }

      .cls-5 {
        fill: #263474;
      }
    </style>
  </defs>
  <path class="cls-5" d="M241.91,178.51c0,11.14-9.02,20.7-20.7,20.7s-20.7-9.02-20.7-20.7,9.02-20.7,20.7-20.7c11.68.53,20.7,9.55,20.7,20.7"/>
  <path class="cls-4" d="M107.11,102.09c0,11.14-9.02,20.7-20.7,20.7s-20.7-9.02-20.7-20.7,9.02-20.7,20.7-20.7,20.7,9.55,20.7,20.7"/>
  <path class="cls-2" d="M203.7,156.22c0,11.14-9.02,20.7-20.7,20.7s-20.17-9.55-20.17-20.7,9.02-20.7,20.7-20.7,20.17,9.55,20.17,20.7"/>
  <path class="cls-4" d="M153.82,181.16c0,11.14-9.02,20.7-20.7,20.7s-20.7-9.02-20.7-20.7,9.02-20.7,20.7-20.7,20.7,9.02,20.7,20.7"/>
  <path class="cls-5" d="M153.82,228.92c0,11.14-9.02,20.7-20.7,20.7s-20.7-9.02-20.7-20.7,9.02-20.7,20.7-20.7c11.68.53,20.7,9.55,20.7,20.7"/>
  <path class="cls-5" d="M241.91,76.61c0,11.14-9.02,20.7-20.7,20.7s-20.7-9.02-20.7-20.7,9.02-20.7,20.7-20.7c11.68.53,20.7,9.55,20.7,20.7"/>
  <path class="cls-5" d="M203.7,102.09c0,11.14-9.02,20.7-20.7,20.7s-20.17-9.02-20.17-20.7,9.02-20.7,20.7-20.7,20.17,9.55,20.17,20.7"/>
  <path class="cls-5" d="M104.46,157.81c0,11.14-9.02,20.7-20.7,20.7s-20.7-9.02-20.7-20.7,9.02-20.7,20.7-20.7,20.7,9.55,20.7,20.7"/>
  <path class="cls-5" d="M65.19,72.37c2.65,11.14-4.25,21.76-15.39,24.41-11.14,2.65-21.76-4.25-24.41-15.39-2.12-11.14,4.78-22.29,15.39-24.41,11.14-2.65,22.29,4.25,24.41,15.39"/>
  <path class="cls-1" d="M63.6,116.41c-1.06,6.37-6.9,10.61-13.27,10.08-6.37-1.06-10.61-6.9-10.08-13.27,1.06-6.37,6.9-10.61,13.27-10.08,6.37,1.06,10.61,6.9,10.08,13.27"/>
  <path class="cls-1" d="M180.88,200.8c-1.06,7.43-7.96,12.21-15.39,11.14-7.43-1.06-12.21-7.96-11.14-15.39,1.06-7.43,7.96-12.21,15.39-11.14,6.9,1.06,11.68,7.96,11.14,15.39"/>
  <path class="cls-1" d="M220.15,115.88c-.53,4.25-4.78,7.43-9.02,6.9s-7.43-4.78-6.9-9.02c.53-4.25,4.78-7.43,9.02-6.9,4.78.53,7.43,4.78,6.9,9.02"/>
  <path class="cls-1" d="M140.55,78.2c-1.06,6.37-6.9,10.61-13.27,10.08-6.37-1.06-10.61-6.9-10.08-13.27,1.06-6.37,6.9-10.61,13.27-10.08,6.9,1.06,11.14,6.9,10.08,13.27"/>
  <path class="cls-4" d="M173.98,62.81c-1.06,6.37-6.9,10.61-13.27,10.08-6.37-1.06-10.61-6.9-10.08-13.27,1.06-6.37,6.9-10.61,13.27-10.08,6.9,1.06,11.14,6.9,10.08,13.27"/>
  <path class="cls-3" d="M98.62,190.71c-1.06,6.37-6.9,10.61-13.27,10.08-6.37-1.06-10.61-6.9-10.08-13.27,1.06-6.37,6.9-10.61,13.27-10.08,6.37,1.06,10.61,7.43,10.08,13.27"/>
  <path class="cls-3" d="M212.72,138.7c-1.06,6.37-6.9,10.61-13.27,10.08-6.37-1.06-10.61-6.9-10.08-13.27,1.06-6.37,6.9-10.61,13.27-10.08,6.9,1.06,11.14,6.9,10.08,13.27"/>
  <path class="cls-5" d="M199.46,192.84c3.18,5.31,1.59,12.74-3.71,15.92-5.31,3.18-12.74,1.59-15.92-3.71-3.18-5.31-1.59-12.74,3.71-15.92,5.31-3.71,12.74-1.59,15.92,3.71"/>
  <path class="cls-3" d="M110.83,55.91c-1.06,6.37-6.9,10.61-13.27,10.08-6.37-1.06-10.61-6.9-10.08-13.27,1.06-6.37,6.9-10.61,13.27-10.08,6.37,1.06,10.61,6.9,10.08,13.27"/>
  <path class="cls-2" d="M154.88,26.72c0,11.68-9.55,21.23-21.23,21.23s-21.23-9.55-21.23-21.23,9.55-21.23,21.23-21.23,21.23,9.55,21.23,21.23"/>
  <path class="cls-2" d="M65.72,178.51c0,11.14-9.02,20.7-20.7,20.7s-20.17-9.55-20.17-20.7,9.02-20.7,20.7-20.7,20.17,9.55,20.17,20.7"/>
  <path class="cls-2" d="M166.55,123.31c0,19.64-15.92,35.56-35.56,35.56s-35.56-15.92-35.56-35.56,15.92-35.56,35.56-35.56c19.64,0,35.56,15.92,35.56,35.56"/>
  <polygon class="cls-5" points="290.21 52.73 326.3 52.73 326.3 61.75 300.82 61.75 300.82 80.33 322.58 80.33 322.58 89.35 300.82 89.35 300.82 117.48 290.21 117.48 290.21 52.73"/>
  <path class="cls-5" d="M334.79,71.3h9.55v5.31c3.18-3.71,7.43-6.37,13.27-6.37,1.59,0,2.65.53,4.25.53v9.55c-1.59-.53-3.18-.53-4.78-.53-5.84,0-9.55,3.18-12.21,6.9v31.31h-9.55v-46.7h-.53Z"/>
  <path class="cls-5" d="M366.63,105.8c0-6.9,5.31-12.21,15.39-13.8l14.86-2.65v-2.65c0-5.84-4.25-9.02-10.08-9.02-5.31,0-9.02,2.12-11.68,5.84l-6.9-5.31c4.25-5.31,10.61-9.02,19.11-9.02,12.74,0,19.64,7.43,19.64,17.51v30.78h-9.55v-5.31c-3.18,4.25-9.02,6.9-14.86,6.9-9.55,0-15.92-5.31-15.92-13.27M384.14,111.11c5.84,0,10.61-2.65,13.27-7.43v-7.96l-12.74,2.12c-5.84,1.06-8.49,3.71-8.49,6.9.53,4.25,3.18,6.37,7.96,6.37"/>
  <path class="cls-5" d="M420.23,71.3h9.55v4.78c3.71-3.71,7.96-6.37,14.86-6.37,10.08,0,18.04,6.9,18.04,20.17v28.13h-9.55v-27.6c0-7.43-4.25-11.68-10.61-11.68s-10.08,3.71-12.74,7.96v31.31h-9.55v-46.7Z"/>
  <path class="cls-5" d="M511.51,104.21l7.43,5.84c-4.25,5.84-11.14,9.55-19.64,9.55-15.39,0-25.47-11.68-25.47-24.94s9.55-24.94,25.47-24.94c8.49,0,15.39,3.71,19.64,9.55l-7.43,5.84c-2.65-3.71-6.9-6.37-12.21-6.37-9.02,0-15.39,6.9-15.39,15.92s6.37,15.92,15.39,15.92c5.31,0,9.55-2.65,12.21-6.37"/>
  <path class="cls-5" d="M550.26,119.6c-15.92,0-25.47-11.68-25.47-24.94s9.02-24.94,23.88-24.94c12.74,0,21.23,9.02,21.23,20.7,0,2.12-.53,4.25-.53,5.84h-35.03c.53,10.08,6.9,15.39,15.92,15.39,5.84,0,10.61-2.65,13.27-6.37l6.9,5.31c-4.25,5.31-11.14,9.02-20.17,9.02M534.86,88.29h24.94c0-5.84-4.25-11.14-11.68-11.14-6.9,0-11.68,4.25-13.27,11.14"/>
  <polygon class="cls-5" points="283.31 136.05 335.32 136.05 335.32 145.6 314.62 145.6 314.62 200.8 304.01 200.8 304.01 145.6 283.31 145.6 283.31 136.05"/>
  <path class="cls-5" d="M340.09,154.09h9.55v5.31c3.18-3.71,7.43-6.37,13.27-6.37,1.59,0,2.65.53,4.25.53v9.55c-1.59-.53-3.18-.53-4.78-.53-5.84,0-9.55,3.18-12.21,6.9v31.31h-9.55v-46.7h-.53Z"/>
  <path class="cls-5" d="M371.94,188.59c0-6.9,5.31-12.21,15.39-13.8l14.86-2.65v-2.12c0-5.84-4.25-9.02-10.08-9.02-5.31,0-9.02,2.12-11.68,5.84l-6.9-5.31c4.25-5.31,10.61-9.02,19.11-9.02,12.74,0,19.64,7.43,19.64,17.51v30.78h-9.55v-5.31c-3.18,4.25-9.02,6.9-14.86,6.9-9.55,0-15.92-5.31-15.92-13.8M389.45,194.43c5.84,0,10.61-2.65,13.27-7.43v-7.96l-12.74,2.12c-5.84,1.06-8.49,3.71-8.49,6.9,0,3.71,3.18,6.37,7.96,6.37"/>
  <polygon class="cls-5" points="429.78 154.09 443.58 190.18 457.38 154.09 467.46 154.09 449.95 200.8 437.21 200.8 419.7 154.09 429.78 154.09"/>
  <path class="cls-5" d="M472.77,188.59c0-6.9,5.31-12.21,15.39-13.8l14.86-2.65v-2.12c0-5.84-4.25-9.02-10.08-9.02-5.31,0-9.02,2.12-11.68,5.84l-6.9-5.31c4.25-5.31,10.61-9.02,19.11-9.02,12.74,0,19.64,7.43,19.64,17.51v30.78h-9.55v-5.31c-3.18,4.25-9.02,6.9-14.86,6.9-10.08,0-15.92-5.31-15.92-13.8M489.75,194.43c5.84,0,10.61-2.65,13.27-7.43v-7.96l-12.74,2.12c-5.84,1.06-8.49,3.71-8.49,6.9.53,3.71,3.18,6.37,7.96,6.37"/>
  <rect class="cls-5" x="527.43" y="154.09" width="9.55" height="46.7"/>
  <rect class="cls-5" x="552.38" y="131.27" width="9.55" height="69.52"/>
  <path class="cls-5" d="M526.37,139.77c0-3.18,2.65-5.84,5.84-5.84s5.84,2.65,5.84,5.84-2.65,5.84-5.84,5.84-5.84-2.65-5.84-5.84"/>
</svg>