<?xml version="1.0" encoding="UTF-8"?>
<svg xmlns="http://www.w3.org/2000/svg" version="1.1" viewBox="0 0 113.3858 56.6924">
  <!-- Generator: Adobe Illustrator 28.7.1, SVG Export Plug-In . SVG Version: 1.2.0 Build 142)  -->
  <g>
    <g id="Capa_1">
      <g>
        <g>
          <g>
            <path d="M37.0106,30.6971h.7171c.7036,0,1.2582.3608,1.2582,1.0192,0,.6404-.4915,1.0372-1.0958,1.0372-.1127,0-.1398,0-.2346-.0089v-.3427c.0767.009.0993.009.1714.009.4059,0,.7216-.2526.7216-.6675,0-.469-.3473-.681-.8659-.681h-.248v2.8366h-.424v-3.2019Z" fill="#222221"/>
            <path d="M40.8974,33.227l-.3383-.5772h-.6268v1.2492h-.4239v-3.2019h.7306c.7396,0,1.2672.3203,1.2672.9651,0,.3427-.1443.6584-.5366.8433l.3066.5142c.2886.4735.442.5501.699.5862l-.0452.3066c-.5095-.0135-.6808-.0811-1.0326-.6855ZM40.1849,31.0489h-.2526v1.2672s.2481.009.5006.009c.3653,0,.6313-.2389.6313-.6268,0-.4645-.3698-.6494-.8793-.6494Z" fill="#222221"/>
            <path d="M43.7785,33.9486c-.9606,0-1.6371-.7079-1.6371-1.691,0-.9606.7081-1.61,1.6912-1.61,1.0056,0,1.6685.6494,1.6685,1.6054,0,1.0147-.69,1.6956-1.7226,1.6956ZM43.792,31.0174c-.717,0-1.2086.514-1.2086,1.1995,0,.7667.4826,1.3619,1.1905,1.3619h.0406c.7802,0,1.2447-.5275,1.2447-1.2853,0-.7666-.487-1.2761-1.2672-1.2761Z" fill="#222221"/>
            <path d="M46.8353,33.9035l-1.2041-3.2064h.46l.9966,2.7509.9741-2.7509h.4284l-1.1724,3.1974-.4826.009Z" fill="#222221"/>
            <path d="M48.8279,33.899v-3.2019h1.7182v.3563h-1.2942v1.0418h1.195v.3473h-1.195v1.0958h1.4025l-.0316.3607h-1.7949Z" fill="#222221"/>
            <path d="M51.2806,30.6971h.46l1.876,2.557v-2.557h.4014v3.2019h-.4509l-1.885-2.5794v2.5794h-.4015v-3.2019Z" fill="#222221"/>
            <path d="M56.2856,33.9441c-1.0598,0-1.7453-.6223-1.7453-1.6325,0-1.0372.681-1.6595,1.7498-1.6595.3111,0,.6313.045.9876.1894l-.0361.3697c-.3788-.1352-.6629-.1894-.9651-.1894-.8343,0-1.2988.4735-1.2988,1.2627,0,.7081.469,1.2898,1.3439,1.2898.2571,0,.6359-.0542,1.0598-.248l-.0271.3834c-.3742.1712-.7395.2344-1.0687.2344Z" fill="#222221"/>
            <path d="M57.9894,33.899v-3.2019h1.7181v.3563h-1.2942v1.0418h1.1951v.3473h-1.1951v1.0958h1.4025l-.0314.3607h-1.795Z" fill="#222221"/>
            <path d="M49.527,37.518h-1.2988l-.3156.9064h-.4284l1.15-3.1974.469-.009,1.2311,3.2064h-.4645l-.3428-.9064ZM48.3365,37.1798h1.0688l-.5546-1.5108-.5142,1.5108Z" fill="#222221"/>
            <path d="M50.771,38.4244v-3.2019h.424v2.8411h1.3935l-.0316.3608h-1.7859Z" fill="#222221"/>
            <path d="M53.102,35.2225h.717c.7036,0,1.2582.3608,1.2582,1.0193,0,.6402-.4916,1.0371-1.0957,1.0371-.1128,0-.1399,0-.2346-.009v-.3428c.0766.0091.0992.0091.1714.0091.4058,0,.7215-.2525.7215-.6675,0-.469-.3473-.6809-.8658-.6809h-.2481v2.8366h-.4239v-3.2019Z" fill="#222221"/>
            <path d="M55.5997,38.4244v-3.2019h1.7183v.3563h-1.2943v1.0417h1.195v.3473h-1.195v1.0958h1.4025l-.0316.3608h-1.7949Z" fill="#222221"/>
            <path d="M58.7334,38.4694c-.2615,0-.5636-.0405-.8478-.1533l-.0089-.3833c.3787.1308.6086.1624.8567.1624.5187,0,.6765-.2615.6765-.5141,0-.2119-.0812-.3788-.5006-.5682l-.2526-.1127c-.5411-.2346-.7034-.5006-.6989-.8704,0-.46.3471-.8524,1.0868-.8524.1985,0,.4554.0226.717.1128l-.0362.3607c-.2841-.0856-.5006-.1127-.6673-.1127-.4735,0-.6539.1985-.6539.4555,0,.2165.0903.3653.5186.5547l.2526.1082c.5455.2254.7033.5232.7033.884,0,.4374-.3066.9288-1.1453.9288Z" fill="#222221"/>
            <path d="M33.7735,42.9948c-1.0597,0-1.7451-.6223-1.7451-1.6325,0-1.0372.6809-1.6595,1.7498-1.6595.311,0,.6312.0451.9875.1894l-.0361.3697c-.3788-.1352-.6628-.1893-.9651-.1893-.8342,0-1.2987.4734-1.2987,1.2627,0,.708.469,1.2897,1.3439,1.2897.2571,0,.6358-.0541,1.0598-.248l-.0271.3834c-.3743.1712-.7395.2344-1.0689.2344Z" fill="#222221"/>
            <path d="M36.8394,42.9993c-.9605,0-1.637-.7079-1.637-1.691,0-.9606.7081-1.61,1.6912-1.61,1.0056,0,1.6685.6494,1.6685,1.6054,0,1.0148-.69,1.6956-1.7227,1.6956ZM36.853,40.0681c-.7171,0-1.2087.514-1.2087,1.1995,0,.7667.4827,1.3619,1.1906,1.3619h.0407c.7801,0,1.2446-.5275,1.2446-1.2853,0-.7666-.4871-1.2761-1.2672-1.2761ZM36.8349,39.0218l-.6133.478-.2074-.2209.8433-.6494.8118.6314-.2391.2389-.5953-.478Z" fill="#222221"/>
            <path d="M40.1217,40.1086v2.8411h-.4193v-2.8411h-1.0193v-.3607h2.4895l-.0271.3607h-1.0238Z" fill="#222221"/>
            <path d="M41.5777,42.9497v-3.2018h1.7182v.3562h-1.2943v1.0418h1.1951v.3473h-1.1951v1.0958h1.4025l-.0315.3607h-1.7949Z" fill="#222221"/>
            <path d="M45.8342,42.9587c-.3608,0-.6991,0-1.0914-.009v-3.2018c.3338-.0045.5592-.0045,1.0327-.0045,1.0282,0,1.8671.5006,1.8671,1.5468,0,1.0733-.7216,1.6685-1.8084,1.6685ZM45.7529,40.1041c-.2839,0-.4238,0-.5862.0045v2.4804c.2346.0089.4103.0089.6855.0089.8298,0,1.3529-.46,1.3529-1.2626,0-.8659-.6538-1.2312-1.4522-1.2312Z" fill="#222221"/>
            <path d="M48.0746,40.8212l-.239-.1443c.2435-.2707.3157-.4735.3157-.6223,0-.1038-.0406-.212-.1759-.3428.0587-.1038.1579-.1578.248-.1578.2075,0,.3247.2028.3202.4148,0,.1534-.036.415-.469.8524Z" fill="#222221"/>
            <path d="M50.3339,42.0433h-1.2988l-.3156.9064h-.4284l1.15-3.1973.469-.009,1.2311,3.2063h-.4645l-.3428-.9064ZM49.1433,41.705h1.0689l-.5547-1.5106-.5142,1.5106Z" fill="#222221"/>
            <path d="M51.3255,42.9497v-.3157l1.691-2.5254h-1.6685v-.3607h2.2143v.2886l-1.7137,2.548h1.876l-.0316.3652h-2.3675Z" fill="#222221"/>
            <path d="M55.4828,42.9993c-.9111,0-1.2898-.478-1.2898-1.4521v-1.7993h.4239v1.7498c0,.7124.2165,1.1318.9065,1.1318.6268,0,.8703-.4058.8703-1.0868v-1.7948h.3969v1.849c0,.8659-.424,1.4024-1.3078,1.4024Z" fill="#222221"/>
            <path d="M58.8416,42.2777l-.338-.5772h-.6269v1.2492h-.424v-3.2018h.7307c.7396,0,1.2672.3202,1.2672.9651,0,.3426-.1443.6583-.5368.8432l.3068.5142c.2886.4735.4419.5501.6988.5862l-.0449.3066c-.5096-.0135-.6811-.0811-1.0329-.6855ZM58.1292,40.0996h-.2525v1.2672s.248.009.5005.009c.3653,0,.6315-.2389.6315-.6268,0-.4645-.3699-.6494-.8795-.6494Z" fill="#222221"/>
          </g>
          <g>
            <g>
              <path d="M20.7783,15.5136l-.5827-1.0423h-.8407v2.6227h-2.096v-7.9579h2.4099c2.2192,0,3.6874.8631,3.6874,2.6676,0,.8181-.3586,1.5355-1.1543,1.9503l.5492.8741c.5491.8968.7958,1.02,1.3562,1.0872l-.157,1.4572c-1.9726-.0225-2.3762-.157-3.172-1.6589ZM19.736,10.7725h-.3811v2.2417s.3811.0225.7846.0225c.6278,0,1.0537-.3587,1.0537-1.0649,0-.8519-.5941-1.1993-1.4572-1.1993Z" fill="#222221"/>
              <path d="M25.1148,17.094v-7.9579h4.7523v1.7149h-2.6564v1.3899h2.4547v1.6811h-2.4547v1.4347h2.9927l-.1233,1.7373h-4.9653Z" fill="#222221"/>
              <path d="M35.5598,17.206c-2.802,0-4.5394-1.3449-4.5394-4.1246,0-2.6003,1.8383-4.0573,4.5507-4.0573.6725,0,1.614.112,2.3986.3474l-.1794,1.7037c-.9751-.2579-1.6701-.3139-2.2192-.3139-1.5132,0-2.3874.7173-2.3874,2.208,0,1.6365.9302,2.5108,2.2529,2.5108.2129,0,.4819-.0225.7733-.101v-2.1184h2.096v2.4434c0,.5605.0225,1.02.0225,1.02-1.02.3139-1.9391.4819-2.7686.4819Z" fill="#222221"/>
              <path d="M39.6608,9.1361h2.096v7.9579h-2.096v-7.9579Z" fill="#222221"/>
              <path d="M46.9457,17.206c-2.4882,0-4.1807-1.6587-4.1807-4.1693,0-2.4771,1.7373-4.0126,4.304-4.0126,2.5219,0,4.1695,1.5355,4.1695,3.9116,0,2.5444-1.6924,4.2703-4.2928,4.2703ZM46.9233,10.75c-1.2665,0-2.0063.9303-2.0063,2.1857,0,1.3787.7847,2.5555,2.0624,2.5555h.0673c1.3337,0,2.0398-1.0873,2.0398-2.4322,0-1.3898-.7958-2.309-2.1632-2.309Z" fill="#222221"/>
              <path d="M52.2458,9.1361h2.3202l3.3401,4.8756v-4.8756h1.9951v7.9579h-2.365l-3.2952-4.8644v4.8644h-1.9952v-7.9579Z" fill="#222221"/>
              <path d="M39.8291,27.7923c-.6164,0-1.6251-.112-2.3424-.3697l-.0337-1.7261c1.0087.2914,1.7373.4034,2.2752.4034.7958,0,1.0088-.3474,1.0088-.6725,0-.269-.1008-.4932-.7621-.7621l-.4709-.1905c-1.6699-.5941-2.0063-1.4459-1.995-2.3537.0112-1.2554.9303-2.5108,3.1047-2.5108.5604,0,1.3787.0673,2.0623.2914l-.168,1.614c-.7511-.2017-1.3114-.2577-1.6926-.2577-.8293,0-1.0647.3025-1.0647.65,0,.2914.1345.5156.9863.8407l.4708.1792c1.5354.5493,1.8606,1.3899,1.8606,2.2754,0,1.0871-.7061,2.589-3.2393,2.589Z" fill="#222221"/>
              <path d="M47.7411,27.8035c-2.5554,0-3.609-1.2664-3.609-3.8331v-4.248h2.096v4.3265c0,1.2665.4482,1.9613,1.7149,1.9613,1.0647,0,1.4682-.6613,1.4682-1.8718v-4.416h2.0063v4.2143c0,2.4883-1.1993,3.8668-3.6764,3.8668Z" fill="#222221"/>
              <path d="M55.8211,27.6915c-1.02,0-1.7148,0-3.0599-.0112v-7.9579h2.7348c2.69,0,4.7525,1.3225,4.7525,3.9006,0,2.7123-1.7375,4.0685-4.4274,4.0685ZM55.6305,21.426c-.3475,0-.5155,0-.7734.0113v4.5169c.2915.0225.5829.0225.9303.0225,1.4571,0,2.3089-.7623,2.3089-2.1857,0-1.6139-1.0872-2.365-2.4658-2.365Z" fill="#222221"/>
            </g>
            <polygon points="29.8647 8.4982 25.0996 8.4982 29.8647 7.0864 29.8647 8.4982" fill="#222221"/>
          </g>
        </g>
        <path d="M96.1269,42.9895V9.1702h-31.9587v33.8193l16.1596,6.5777,15.7991-6.5777Z" fill="none" stroke="#093e67" stroke-linecap="round" stroke-linejoin="round" stroke-width=".1465"/>
        <g>
          <path d="M64.1682,9.209v33.8193l1.7935.73V9.3851h1.7453v35.0864l1.8097.7339V9.3851h1.7595v36.5334l1.7952.7338V9.3851h1.7226v37.9804l1.77.7085V9.3679h1.8056v39.3795l1.9582.8586v-23.4726h15.7991V9.209h-31.9587ZM87.9149,11.131c-.0092.1807-.1221.329-.3112.4461.2478.0312.5861.0269.8515-.0184.2662-.0445.6802-.2209.7991-.4548-.0337.2973-.1966.4389-.3266.5514-.1306.113-.2454.1561-.5.1782.3072.0677.6856.2166.9553.2571.2705.0402.8474.0768,1.2606-.329-.0987.3422-.2198.4693-.545.6074-.215.0914-.4049.1-.5848.1092.229.2338.4906.5267.8375.8557.3468.3286.879.8645,1.6398.3871-.1081.3199-.414.4146-.7565.3644-.3431-.0494-.6624-.2031-.9235-.3557-.2614-.1541-.3908-.4793-.3908-.4793,0,0-.0446.2001.0336.5011-.1221-.0542-.2014-.213-.268-.3784-.1025.0855-.2001.1446-.2001.1446.0315-.1403.0682-.1292-.0672-.3455-.1672-.2679-.4715-.4133-.5527-.5041.1174.3479.1624.6152-.172.8161l.0105-.1783s-.1783.4572-.4575.4346c.1899-.1673.3126-.2673.2798-.5683-.0421-.3779-.1069-.6935-.4354-.9597-.329-.2662-.694-.4906-.9364-.5012-.5354-.0226-.6692-.0898-.6692-.0898.4347-.0555,1.0141.0686,1.4292-.4905ZM84.1295,12.8628c.1203-.0488.6122.2392.7813.1672.1686-.072.3479-.1073.492-.2277-.2044-.1922-.2403-.4083-.1319-.6367.0753-.1581.3107-.4248.8377-.5068.0184-.003.0397-.0181.0543-.0078.2441.172.5402.1531.8803.172.4102.0221,1.1994.4996,1.3381,1.1037.0884.3903-.0024.6662-.4688.9365,0,0,.3778.0483.6916-.178l-.0219.1227c.6238-.4348.4329-.8755.4329-.8755.161.1338.276.2435.3142.3064.0739.1241-.0342.5353-.0342.5353.1119.0219.3463-.2081.3463-.1445,0,.2899.3571.3123.5238.4571.0971.0831-.1648-.4213-.0777-.3462.243.2114.4792.223.5793.3346.348.3876,1.0306,1.3928.8254,2.7436-.1538,1.0114-.7307,2.4091-1.5719,3.122-.5128.4347-.9756.9084-1.1263,1.0378.7357-1.0152.5682-1.1381.5682-1.1381l-.2788.179.0898-.3009s-1.3163.8576-1.9962.836c0,0,1.9846-.6138,1.9064-2.7098-.0751-2.0185-.7472-2.7079-1.672-3.2115-.3725-.1807-.8364-.1564-.8364-.1564l-.1411-.0605s-.1793-.0841-.5524-.2044c-.3724-.1203-.9693-.096-1.1252-.0715-.1562.0238-.194-.1313-.0378-.2034.1562-.0719,1.381-.0779,1.5255-.0053.0116-.1686-.3368-.373-.7692-.4451-.4321-.072-1.081-.072-1.225-.2637-.1441-.1929-.2401-.3126-.1203-.3601ZM87.0634,15.4238c-.0226-.2892-.1545-.5862-.3438-.8022.4574.0116.8145.2344.8145.2344l.6017.435s.027.4483.0087.6101c-.0184.1613.0453.6398-.505.5767.1632-.2158.1357-.3151.1082-.5589-.0262-.2433-.1527-.7023-.27-.8377-.117-.1343-.1799-.1893-.1799-.1893,0,0,.0262.1359.0629.2977.0358.1613.0183.4413-.0367.5222-.0532.0809-.1977.1893-.4586.1716.171-.1538.2163-.2341.198-.4596ZM87.2708,19.135c.3687-.035.5416-.1645.909-.4412.3053-.2298.5184-.9116.7252-1.3179,0,0,.0672.7698,0,1.0924-.0482.232-.2942.7779-.4353.9925-.1402.2156-.2799.2965-.2799.2965-.0173-.0906-.0545-.1983-.0815-.2258-.0359-.0362-.2074-.0087-.2074-.0087,0,0-.027.046.055-.1083.0799-.1532-.3878-.2067-.6851-.2795ZM88.3246,24.1774c-.5286-.1198-.6605-.6613-.7687-.902-.1087-.2395-.4687-.384-.5769-.384-.1087,0,.0844.2168-.1562.2168-.24,0-.0116-.2287-.2764-.5286-.2646-.301-.5759-.3485-1.1765-.5406.804-.0841,1.2849-.179,2.2214-.8771-.9241.6247-2.1621.2288-2.2813.1446-.1208-.0841-.3126-.5168-.3846-.5642-.0725-.0486-.1087.0237-.3126-.1446s-.2886-.2999-.1683-.3841c.1208-.0841.0237.0961.1561-.0118.1325-.108.0483-.4812-.1917-.8294-.2403-.3485-.5403-.2757-.769-.2643.048-.1079.2519-.204.5403-.1797.288.0237.0957.048.9852.9001,1.4066,1.3496,2.5022.8922,3.7512.2125l-.056.178s.1197.0324.3236-.1003c-.1791.3344-.4154.588-1.016,1.6205-.6001,1.0324-.2039,1.861.1802,2.1738.3851.3129.4083.0357.6605.0486-.0232.1068-.1562.3355-.6843.2158ZM90.7567,22.8018c-.0721-.1262-.2698-.9914-.4861-1.19-.2166-.1963-.4509-.2244-.4509.0098s-.1894.2071-.2252-.027c-.0357-.2342-.1063-.5384-.8122-.4489,0,0,.7814-.7045,1.149-1.027.4461-.3906.937-1.1482.937-1.1482-.0725.667-.3093,1.1827-.274,1.939.0366.7574.045,1.2256.3425,1.8557.0812.1726-.1082.1628-.1801.0366ZM92.0812,17.986c-.1532.1268-.1896.4597-.2843.6269-.0264-.1672-.2155-.3097-.3468-.3108-.0469,0-.1918.0437-.2697.0777,0,0,.1478-.3624.2562-.7131.1338-.4359.2004-1.0713.2004-1.0713.0623.1489.1513.1931.3814.603.2295.41.4458.608.7156.7386-.1977-.0448-.4993-.0761-.6528.049Z" fill="#222221"/>
          <path d="M85.5676,12.6295c.1936.0768.2114.0946.2608.099.0494.0043.6355-.1759.8919-.1802.2568-.0043.6207.2217.8032.7504.0619-.4354-.0328-.516-.1502-.6465-.1165-.1306-.3271-.2136-.4649-.2175.0822-.0714.285-.0623.3484-.0666-.199-.059-.4731-.1035-.8515.0043-.3786.1082-.4995.2719-.5454.2711-.045-.0005-.2923-.014-.2923-.014Z" fill="#222221"/>
          <path d="M86.3759,12.9566c.0019.0782.0715.1392.1546.1368.0836-.0024.1483-.0677.1459-.1459-.0032-.078-.0728-.1392-.1551-.1373-.0831.003-.1489.0685-.1454.1464Z" fill="#222221"/>
          <polygon points="89.3666 34.3379 89.2849 34.2479 89.1875 33.5748 89.5986 33.3812 89.7996 33.1568 90.0323 33.0372 90.0995 32.9176 90.2333 32.9404 90.3236 32.8505 90.3756 32.9404 90.5027 33.0532 90.6968 33.0452 90.7791 32.9404 90.8842 32.9701 90.9958 32.7981 91.1524 32.7981 91.6086 32.4017 91.6162 32.4689 91.7808 32.6113 91.9824 32.5589 92.1165 32.4177 92.1763 32.2525 92.1843 32.3641 92.3258 32.5749 92.4904 32.6409 92.6777 32.5509 92.7144 32.4473 93.0134 33.224 93.1535 33.1306 93.1484 33.4643 93.1734 33.7684 93.1734 34.0987 93.1239 34.3482 93.1734 34.6511 93.1484 35.011 93.1734 35.3413 93.1484 35.6727 93.098 35.9768 92.9994 36.1693 92.9994 36.4175 92.949 36.749 92.9245 37.0246 92.8491 37.3013 92.7996 37.577 92.7002 37.4938 92.6757 37.2455 92.6757 36.8594 92.6757 36.3902 92.6501 35.8937 92.5006 35.9483 92.4252 35.7 92.4252 35.5075 92.3266 35.5622 92.2272 35.3971 92.1976 35.208 92.1273 35.2866 92.0032 35.1761 91.9277 34.9005 91.8528 34.9552 91.7034 34.8447 91.6285 34.5964 91.6273 34.5805 91.59 34.6055 91.4611 34.5839 91.4784 34.7889 91.3799 34.9278 91.2549 34.9005 91.155 35.0372 91.0061 35.0941 90.979 35.003 90.9315 35.1477 90.8056 35.2308 90.6322 35.2035 90.4332 35.2581 90.3577 35.0372 90.3577 34.7057 90.3828 34.3754 90.399 34.2935 90.3532 34.2935 90.3102 34.445 90.2663 34.6169 90.1413 34.5839 90.042 34.749 89.8925 34.8162 89.8421 34.6169 89.8185 34.2195 89.8185 33.9962 89.7695 34.2319 89.6456 34.3424 89.5702 34.0941 89.5309 33.5976 89.3666 34.3379" fill="#222221"/>
          <path d="M88.5121,36.5018" fill="#c20e1a" stroke="#222221" stroke-width=".1321"/>
          <path d="M87.6323,36.0759l-.1042.5717-.0595.057-.0966.058-.1306.0433-.1447.0137-.1566.0148-.1919-.0148-.1193-.0706-.1204-.0444.0612.0729.0592.0854.084.0865.0959.0729.1077.0422.1321.0148.1199-.0148.1321-.0137.1076-.0433.0843-.0581.0959-.115.0117.1583-.0353.115-.0367.1014-.0473.0854-.0837.1014-.1087.1002-.0954.0865-.1082.0434-.1085.0432-.1971.074.0547.0912.0669.115.1085-.1025.1939-.1515.1341-.0843.3807-.2186.0183.2118-.0118.2301-.0669.1207-.0786.0786-.0902.1093-.0612.0717-.0729.0558-.1637.1515.0908-.025.1336-.1026.0848-.0546.254-.1936.0305.2175-.0183.1891-.0122.0899-.0419.1458.1025-.0193.0245.1765.0239.1754.1145-.4726.1637.1515-.0603-.1641-.0362-.1742.0065-.1276.0778-.1572.1523.2051.072.0729.1031.025.1327.0786.086.0171h.0959l.0857-.0536-.3758-.164-.17-.1275-.0846-.139-.0606-.1628-.0245-.115-.018-.1572-.0199-.1606-.0239-.2597.0239-.1572.0606.1435.0838.1572.0954.1162.101.1173s.1863.0387.3822.1822c.2779.2039.3442.2722.3442.2722l.0606-.1264.1455-.279-.0974.0057h-.1802l-.1799-.0433-.1444-.057-.1429-.1014-.1199-.1138-.0846-.1014-.0597-.1583-.0601-.1446-.1191-.172.1191.1014.0962.1002.1204.0865.1792.0718.1677.0148.2047-.0148.1315-.0433.1193-.0865.1327-.1572.096-.1879-.0729.115-.0954.0865-.1077.057-.132.0433-.1436.0148-.1799-.0296-.1689-.0285-.1307-.0706-.1978-.6242" fill="#222221"/>
          <path d="M88.8484,37.8127" fill="#fff" stroke="#222221" stroke-linecap="round" stroke-linejoin="round" stroke-width=".1321"/>
          <polygon points="87.3032 30.0032 87.2135 29.9713 87.1226 29.9713 87.0594 29.9713 86.9686 29.9713 86.8971 29.9918 86.8333 30.0248 86.7619 30.0567 86.689 30.0681 86.6078 30.0567 86.5259 30.0464 86.4453 30.0145 86.3815 29.9713 86.3177 29.9064 86.2824 29.797 86.2733 29.7219 86.2641 29.6569 86.2283 29.6353 86.183 29.6672 86.183 29.7549 86.1921 29.8517 86.2283 29.9713 86.2641 30.0567 86.3177 30.1125 86.3724 30.166 86.4453 30.1979 86.535 30.2093 86.6161 30.1979 86.689 30.1979 86.7619 30.166 86.8513 30.1444 86.9686 30.1125 87.0777 30.1125 87.1588 30.1228 87.2414 30.1558 87.3032 30.1877 87.3849 30.2424 87.4475 30.2856 87.5204 30.2958 87.5383 30.2207 87.5113 30.1228 87.466 30.0567 87.421 30.0248 87.3032 30.0032" fill="#222221"/>
          <path d="M88.9799,28.6103l-.3337.427.0857-.6241-.2816.5262.0624-.6343-.2577.5637.0231-.6424-.2133.5547-.0077-.6185-.1965.5661-.0176-.607-.1933.5956-.049-.6286-.146.6024-.0903-.6013-.1219.6378-.1708-.5661.0387.6162.0025.0034.0058.221s.2997-.0764.6115.0057c.3932.1036.9451.484.9451.484,0,.0011.0005-.0627.0005-.0615,0,0,.0587-.2312.0587-.2324l.2454-.5876Z" fill="#222221"/>
          <polygon points="87.0523 33.3185 86.81 33.2639 86.5993 33.0259 86.3804 32.9245 86.283 32.7798 86.1682 32.8163 86.0774 32.7069 86.029 32.8037 85.908 32.9188 85.7203 32.9245 85.6295 32.822 85.5154 32.8584 85.4117 32.6762 85.2537 32.6762 84.8123 32.2958 84.6429 32.4894 84.4365 32.4587 84.2973 32.3197 84.2309 32.15 84.0917 32.4347 83.9288 32.5133 83.7406 32.4473 83.6987 32.3311 83.4146 33.0646 83.2264 33.052 83.231 33.3858 83.2065 33.6899 83.2065 34.0201 83.256 34.2695 83.2065 34.5725 83.231 34.9324 83.2065 35.2627 83.231 35.5941 83.2805 35.8982 83.3796 36.0906 83.3796 36.3389 83.43 36.6704 83.4545 36.946 83.5299 37.2228 83.5794 37.4984 83.6789 37.4152 83.7039 37.167 83.7039 36.7808 83.7039 36.3128 83.7284 35.8151 83.8784 35.8697 83.9533 35.6226 83.9533 35.429 84.0524 35.4836 84.1524 35.3174 84.1808 35.1294 84.2511 35.208 84.3767 35.0975 84.4521 34.8208 84.5268 34.8766 84.6757 34.7661 84.7505 34.5178 84.7523 34.5019 84.789 34.5269 84.918 34.5053 84.9 34.7103 85 34.8492 85.1236 34.8208 85.2241 34.9586 85.373 35.0155 85.4 34.9244 85.4484 35.0702 85.5729 35.1522 85.7468 35.1249 85.9464 35.1795 86.0208 34.9586 86.0208 34.6283 85.9963 34.2969 85.98 34.2137 86.025 34.2137 86.0722 34.3675 86.1135 34.5383 86.2372 34.5053 86.337 34.6704 86.4866 34.7376 86.5369 34.5383 86.5614 34.1408 86.5614 33.9176 86.6095 34.1545 86.7334 34.2638 86.8088 34.0156 86.9455 33.5338 87.0523 33.3185" fill="#222221"/>
          <path d="M93.1939,32.2628l-.025-.2757-.0755-.2209-.0985-.1651-.1259-.1936c-.0777-.1356-.1235-.27-.197-.3338-.0749-.0649-.3513-.2767-.6238-.2733-.2734.0046-.3938.1902-.4209.2779-.0284.0877-.0689.4897-.1668.5319-.0974.041-.254-.0376-.3596-.1208-.1071-.0831-.2224-.1901-.3656-.0968-.1435.0923-.041.6971-.3047.8132-.0749.0319-.2087-.0831-.283-.0785-.0735.0056-.3781.2129-.5128.1708-.1335-.041-.3044-.254-.379-.3462-.0735-.0923-.1825-.1595-.2158-.1857l-.1207-.1162-.0721-.1161-.013-.0319c-.1012-.1971-.11-.3554-.116-.4773-.0056-.1366.0374-.5113.0189-.7094-.0189-.1971-.0613-.4613-.0744-.5353-.0077-.0445-.0333-.0616-.0245-.1481,0,0-.3633-.3155-.8473-.4613-.4846-.1446-.6657-.017-.6657-.017v.0956l-.1088-.0569-.0968-.0148-.1392.0296-.1082.0637-.102.0946-.0603.0865-.0478.1595.0239.1731.0476.1299.0489-.0866.0601-.0581.0959-.0285.1205.0148.1443.0285.1452.0581.1444.0865.0971.0866.084.0865.0359.1162-.0236.0866-.1091-.0148-.1315-.0581-.1823-.0285-.1315.0148-.145.0581-.1204.0866.072-.0148.096-.0148h.1207l.1449.0296.1327.0581.0968.0569.0832.0444.0857.1002.0953.0877.0604.0718v.1298l-.0359.131-.0484.1013-.0478.1299-.0122.1014c-.018.0376-.0934.0728-.2229.1924-.1287.1208-.1424.2403-.1889.2962-.0458.0547-.1474.0694-.1893.1105-.0421.041-.0923.1845-.1529.1993-.0598.0136-.3041-.0843-.4245-.1299-.1207-.0467-.1387-.0228-.2361.041-.0965.0661-.273-.1378-.328-.2312-.0555-.0923-.0045-.443-.0831-.5455-.0792-.1003-.2443-.0593-.328.0045-.0837.0649-.2964.2096-.4448.1765-.1469-.033-.1469-.5398-.2525-.6514-.1071-.1116-.223-.213-.5504-.1207-.3286.0922-.4755.32-.5046.3792l-.0993.1925-.125.1936-.0991.1641-.074.222-.0254.2756-.0256.303.0256.3314.0331.1458h.1147l.3576-.9134.1205.2232.0301.1094.0729.0307.0786-.0307.0857-.139.0479-.1697.0908-.2357.1153.2289.0908.2129.0723.09.0909.0126.0786-.0604.0541-.2551.2121.2129.1759.1208.194.1879.1933-.0057.0851.1503.0909-.0182.1147.1219h.0663l.0669-.0547.1091-.2369.1817.1765.1449-.0364.0845.139.2669.1514.1759.2005.3138.0717-.0356.1037-.0063.0227-.0065.0673-.0063.1127.0236.1583.0259.0809.0103.0341-.0117.0729.0117.131.018.0638.0065.0227-.0245.1014v.1298l-.0117.1151-.0592.1013-.0618.0729-.0846.0855-.0831.1161-.0612.1458-.0353.1151s-.1837.107-.1581.4305l-.2197.3075.3693-.1481-.299.2802h.4635l-.0336.32.3852-.2973-.148.369.5484-.1924s.8752.2141,1.0646.2312c0,0-.2805-.2654-.2805-.3474,0-.0831.4377.2221.4958.2802l-.2566-.6276.355.3804-.0663-.5455.3887.2392-.0573-.2221.3802.2312-.3531-.5012-.0723-.173-.0729-.1743-.1435-.1731-.1091-.1299-.0965-.0432.0481-.1891.0362-.1731v-.2164l.0031-.0365.0444-.1229.0248-.188.0128-.1731.4485-.1731.2087-.2392.2477-.1276.0965-.1491.1501.0216.1713-.172.1202.2403.0669.0592.0747-.0147.0973-.1048.0968.0227.0823-.1571h.1948l.2531-.2323.127-.0741.254-.2847v.3143l.0754.082.0894-.0216.0826-.0832.201-.4771.0381.1559.0516.1276.06.1652.0747.1332.0826.0228.0674-.0296.1489-.3747.0826.1731.0592.2016.2096.5603.1113-.0307.0168-.0934.0245-.3314-.0245-.3041ZM87.5506,29.6114c-.0729,0-.1501.0022-.1501-.0706,0-.074.0496-.1333.1108-.1333.0618,0,.1108.0593.1108.1333,0,.0728.0014.0706-.0715.0706Z" fill="#222221"/>
          <path d="M89.2436,38.0587s.248-.6298.6056-.9567c0,0,.1999.4841.3263.6059,0,0-.1928-.5091.5572-.6605,0,0,.9083.2175.3938,1.1013,0,0,.3539.0114.4906-.205.2235-.3576-.2121-.9988-.2121-.9988,0,0,.1392-.0672.2784.0296.1393.0968.0792.582.0792.582l.1927-.1879s.1939.1753.4847.8894c.2907.7142.3718,1.2836.3718,1.2836,0,0-.123.4237-.8442.4237-.6722,0-.7625-.5866-.7625-.5866,0,0-.018.5809-.7745.5809-.1335,0-.236-.0251-.236-.0251,0,0-.1512-.5922-.3944-1.0592-.2423-.4658-.5566-.8166-.5566-.8166Z" fill="#222221"/>
          <path d="M89.1528,35.9096l-.024-.2301.3688.1994s.5515.6115,1.2417.7266c0,0,.7681-.5638.9319-.5456.2545.0307.2725.3884.2725.3884,0,0-.1945-.1333-.3332-.0786-.1392.0536-.3872.2904-.3872.2904,0,0,.6056-.1081.6902.2358.0663.2734-.0541.3519-.0541.3519,0,0,.0276-.2096-.055-.3155-.23-.2961-.5811-.0307-.5811-.0307,0,0,.3878.6116.3209.8473-.0729.2552-.1817.2187-.1817.2187,0,0,.1629-.3565-.0182-.6412-.1817-.2847-.4908-.4248-.6116-.4123-.5341.0536-.6591.4237-.6591.4237,0,0-.1154-.32-.0367-.4362.0785-.1139.5142-.1208.5142-.1208,0,0-.9866-.3086-1.3983-.8712Z" fill="#222221"/>
          <path d="M86.7553,36.2718l.0966-.2119-.1934-.0057s-.4296.4123-1.0173.5638c0,0-.7329-.5546-.8952-.533-.1876.0239-.303.3143-.303.3143,0,0,.1393-.1139.254-.0546.1327.0706.424.2858.424.2858,0,0-.5814-.1013-.6657.2415-.0664.2722.0658.3872.0658.3872,0,0-.0154-.1344.0797-.2301.2836-.2847.5563-.115.5563-.115,0,0-.4111.4294-.339.8109.0498.2608.2004.254.2004.254,0,0-.1939-.3326.0174-.6412.1913-.2779.4943-.443.6115-.4112,1.1447.3087.7697.6959.7697.6959,0,0,.3203-.0717.0541-.5444-.0689-.1219-.6845-.3155-.6845-.3155,0,0,.654-.205.9686-.4908Z" fill="#222221"/>
          <path d="M83.2745,39.5655s.1091-.6469.3758-1.3131c.2654-.6663.6657-1.1082.6657-1.1082,0,0,.0846.2847.2481.3747,0,0,.0421-.508.3268-.5137,0,0-.6116,1.0285.2423,1.1196,0,0-.3029-.8599.4658-1.0718.3514-.0968.7631.3998.7631.3998.0183.0911-.2725.2244-.2725.2244,0,0,.2546.2118.5265-.0069,0,0,.1939.2973.2004.3634,0,0-.279.2858-.5637.8541-.2836.5684-.3875,1.0831-.3875,1.0831,0,0-.2119.0046-.4169-.0056-.5213-.0239-.6059-.5034-.6059-.5034,0,0-.0598.509-.8416.509-.5567,0-.7264-.4054-.7264-.4054Z" fill="#222221"/>
          <path d="M86.0167,39.9231s.2964-1.0045.6968-1.5558c.3994-.5512.8835-.7322.8835-.7322v.1685l-.0729.1162-.4177.3929-.2415.0968.3622.139.2674-.1447.1509-.1275-.0245.2425-.0723.1504-.1096.0854.2483.0786.0185.1685.1631.2916.176-.508.1816.1025.2056-.0842-.1153-.1036-.127-.2062-.0051-.1504.0418.0718.3514.1754.176.0194.1449-.0547.1577-.2061-.1765-.0479-.3266-.1651-.1632-.1082-.1153-.2597-.0179-.1765s.6025.1139,1.1198.8484c.5202.7381.6478,1.4522.6478,1.4522-.3815,0-.4117-.4898-.4117-.4898,0,0-.0182.5513-.7748.5513-.757,0-.8234-.4237-.8234-.4237,0,0-.0239.4351-.7805.4351-.7573,0-.8057-.418-.8057-.418,0,0-.1996.3997-.4118.3758Z" fill="#222221"/>
          <path d="M82.8266,40.0803c.2728-.0057.4417-.303.4417-.303,0,0,.1759.3269.763.3269s.8172-.3326.8172-.3326c0,0,.1398.3508.7565.3508.6179,0,.8294-.3393.8294-.3393,0,0,.1817.3519.7386.3393.6418-.0136.8536-.3508.8536-.3508,0,0,.1697.3269.8181.3269.6469,0,.7682-.3394.7682-.3394,0,0,.152.3337.7998.3337.6469,0,.8106-.3337.8106-.3337,0,0,.1694.3337.7565.3337s.8172-.3097.8172-.3097c0,0,.1096.2243.3758.279v.3883s-.1457.2051-.7696.0479c-.3363-.0854-.4718-.3701-.4718-.3701,0,0-.127.443-.7508.443-.623,0-.824-.4226-.824-.4226,0,0-.2172.4226-.816.4226-.5994,0-.7739-.4226-.7739-.4226,0,0-.153.4101-.789.4101-.6352,0-.8132-.4101-.8132-.4101,0,0-.1423.3986-.7785.3986-.6355,0-.7978-.3986-.7978-.3986,0,0-.1036.3998-.8422.4157-.5691.0126-.7599-.4157-.7599-.4157,0,0-.2087.4021-.7116.4101-.3812.0056-.4479-.1083-.4479-.1083v-.3701Z" fill="#222221"/>
          <path d="M82.8266,40.6247v.3576h10.3462v-.3633s-.1096.0729-.3579.0729c-.6173,0-.8775-.3394-.8775-.3394,0,0-.2056.3462-.7993.3462-.4897,0-.7926-.3393-.7926-.3393,0,0-.3086.3393-.7933.3393-.5085,0-.787-.3337-.787-.3337,0,0-.248.3269-.8473.3269-.4291,0-.7508-.3212-.7508-.3212,0,0-.2296.3212-.799.3212s-.7747-.3143-.7747-.3143c0,0-.145.3075-.805.3075-.6605,0-.7998-.3201-.7998-.3201,0,0-.217.3337-.7203.3337-.2238,0-.4417-.074-.4417-.074Z" fill="#222221"/>
        </g>
      </g>
    </g>
  </g>
</svg>