<?xml version="1.0" encoding="UTF-8"?>
<svg id="Calque_1" data-name="Calque 1" xmlns="http://www.w3.org/2000/svg" xmlns:xlink="http://www.w3.org/1999/xlink" viewBox="0 0 595.28 255.12">
  <defs>
    <style>
      .cls-1, .cls-2, .cls-3, .cls-4, .cls-5, .cls-6 {
        stroke: #222221;
      }

      .cls-1, .cls-7, .cls-3, .cls-8 {
        fill: none;
      }

      .cls-1, .cls-3, .cls-5, .cls-6 {
        stroke-linejoin: round;
      }

      .cls-1, .cls-5, .cls-6 {
        stroke-width: .03px;
      }

      .cls-9 {
        fill: #e7af19;
      }

      .cls-2 {
        stroke-width: .07px;
      }

      .cls-2, .cls-5 {
        fill: #184b80;
      }

      .cls-10 {
        fill: #fff;
      }

      .cls-3 {
        stroke-linecap: round;
        stroke-width: .15px;
      }

      .cls-11, .cls-4, .cls-6 {
        fill: #c2171c;
      }

      .cls-4 {
        stroke-width: .03px;
      }

      .cls-12, .cls-13, .cls-14 {
        fill: #222221;
      }

      .cls-13 {
        stroke-width: .02px;
      }

      .cls-13, .cls-14, .cls-8 {
        stroke: #fff;
      }

      .cls-15 {
        clip-path: url(#clippath);
      }

      .cls-14 {
        stroke-width: 0px;
      }

      .cls-8 {
        stroke-width: .07px;
      }
    </style>
    <clipPath id="clippath">
      <path class="cls-7" d="M429.88,247.35h0l5.87-2.12,6.7-2.79c15.39-6.48,18.46-7.41,35.74-14.88,10.07-4.35,41.78-17.29,41.78-17.29V19.6h-180.16s-.25,160-.25,190.67c0,0,57.07,24.06,67.4,27.44l22.93,9.65Z"/>
    </clipPath>
  </defs>
  <g id="Capa_1" data-name="Capa 1">
    <g>
      <g class="cls-15">
        <g>
          <polygon class="cls-9" points="526.14 249.68 525.56 -3.67 333.22 -3.67 333.8 249.68 526.14 249.68"/>
          <polygon class="cls-10" points="519.44 224.22 525.62 115.28 430.64 115.27 430.75 248.63 519.44 224.22"/>
          <rect class="cls-11" x="349.66" y="-3.64" width="9.88" height="223.98"/>
          <rect class="cls-11" x="369.7" y="-3.64" width="9.88" height="232.26"/>
          <rect class="cls-11" x="389.74" y="-3.67" width="9.88" height="241.15"/>
          <rect class="cls-11" x="409.77" y="-3.67" width="9.88" height="248.41"/>
        </g>
      </g>
      <path class="cls-3" d="M519.71,210.27V19.62h-180.16v190.65l91.1,37.08,89.06-37.08Z"/>
      <g>
        <g>
          <path class="cls-14" d="M502.49,193.04c-1.53-11.75-6.48-19.05-12.08-19.05s-10.59,8.53-12.01,20.91"/>
          <path class="cls-14" d="M471.9,195.01c-1.23-12.82-6.41-20.88-12.28-20.88-5.43,0-10.16,7.82-11.81,19.33"/>
          <path class="cls-13" d="M485.94,193.86c-2.17-8.4-6.37-13.41-11-13.41s-8.66,5.55-10.82,14.2"/>
        </g>
        <polygon class="cls-4" points="471.25 137.02 470.75 136.84 470.25 136.84 469.9 136.84 469.39 136.84 468.99 136.95 468.64 137.14 468.23 137.32 467.83 137.38 467.37 137.32 466.92 137.26 466.46 137.08 466.11 136.84 465.76 136.47 465.56 135.87 465.51 135.45 465.46 135.08 465.26 134.96 465 135.14 465 135.63 465.06 136.17 465.26 136.84 465.46 137.32 465.76 137.63 466.07 137.92 466.46 138.11 466.97 138.17 467.42 138.11 467.83 138.11 468.23 137.92 468.73 137.8 469.39 137.63 470 137.63 470.45 137.68 470.9 137.86 471.25 138.05 471.71 138.35 472.06 138.59 472.47 138.65 472.56 138.23 472.41 137.68 472.16 137.32 471.91 137.14 471.66 136.89 471.25 137.02"/>
        <polyline class="cls-4" points="472.11 138.92 471.51 138.83 470.76 138.51 469.76 138.35 469.02 138.43 468.21 138.75 467.55 139.24 467.94 139.16 468.48 139.07 469.16 139.07 469.96 139.24 470.7 139.56 471.24 139.88 471.71 140.12 474.86 139.7 474.7 137.21 472.94 135.39 471.74 135.28 471.43 133.34 470.56 133.59 470.1 133.03 469.49 132.7 468.95 132.62 468.18 132.78 467.58 133.15 467.01 133.67 466.67 134.16 466.4 135.04 466.54 136.01 466.8 136.73 467.07 136.25 467.41 135.93 467.94 135.76 468.61 135.85 469.42 136.01 470.23 136.33 471.04 136.82 471.57 137.3 472.05 137.78 472.25 138.43 472.11 138.92"/>
        <path class="cls-4" d="M480.44,129.46l-1.86,2.38.48-3.48-1.57,2.94.34-3.54-1.43,3.15.12-3.59-1.19,3.09-.04-3.45-1.09,3.15-.1-3.38-1.01,3.24-.07.09-.46-3.32-.63,3.18-.83-3.18-.35,3.38-.95-3.16.21,3.44.02.02-.02,1.21-.02.66s0,0,0,0h0s-.01.52-.01.52c-.04.1,1.37.03,1.3.05l5.8,1.55c.31.26,1.49.26,1.44.47l.23-.87s0,.02,0,.03l.32-1.28h.01s0-.02,0-.03l.05-.2,1.31-3.07h0Z"/>
        <path class="cls-2" d="M504.25,193.76v-.72c-1.72-.37-2.36-1.39-2.43-2.6-.07,1.18-1.24,2.16-2.88,2.55l-3.02.02c-1.72-.39-2.96-1.44-2.96-2.67l-.03.04c0,1.22-1.21,2.26-2.9,2.66h-2.99c-1.74-.37-2.98-1.42-2.98-2.66h-.08c0,1.28-1.32,2.36-3.13,2.72h-2.52c-1.8-.32-3.13-1.35-3.21-2.59-.04,1.25-1.34,2.29-3.12,2.65h-2.54c-1.76-.31-3.06-1.31-3.19-2.51-.09,1.18-1.32,2.17-3,2.54h-2.85c-1.68-.37-2.92-1.37-3-2.56-.14,1.26-1.57,2.29-3.45,2.56h-1.94c-1.9-.27-3.33-1.33-3.46-2.6-.13,1.21-1.1,2.21-2.85,2.53v5.71h58.52v-5.05h0Z"/>
        <polygon class="cls-4" points="470.08 155.44 468.1 153.48 468.1 153.46 468.07 153.46 467.58 152.97 467.65 153.35 466.47 153.04 467.39 150.68 462.54 149.44 457.49 147.48 454.97 143.61 451.36 143.77 450.54 147.36 450.19 148.42 449.21 148.55 449.23 151.33 448.38 153.94 448.38 156.1 448.23 157.79 448.23 159.64 448.51 161.03 448.23 162.72 448.38 164.72 448.23 166.57 448.38 168.42 448.66 170.11 449.21 171.19 449.21 172.57 449.49 174.42 449.63 175.96 450.04 177.5 450.33 179.04 450.87 178.58 451.02 177.2 451.02 175.04 451.02 172.41 451.16 169.65 451.99 169.96 452.41 168.57 452.41 167.49 452.96 167.81 453.52 166.88 453.68 165.82 454.08 166.26 454.77 165.65 455.18 164.11 455.6 164.41 456.44 163.8 456.85 162.41 456.86 162.32 457.07 162.46 457.79 162.34 457.69 163.49 458.24 164.26 458.94 164.11 459.5 164.87 460.33 165.19 460.48 164.68 460.75 165.49 461.44 165.96 462.41 165.8 463.53 166.11 463.94 164.87 463.94 163.03 463.8 161.18 463.72 160.72 463.96 160.72 463.9 161.61 464.45 162.53 465.15 162.34 465.71 163.27 466.54 163.64 466.82 162.53 466.95 160.31 466.95 159.06 467.23 160.38 467.92 161 468.33 159.61 468.33 157.46 468.27 156.37 469.11 160.51 469.8 161.13 470.22 159.75 470.22 157.59 470.08 155.44"/>
        <path class="cls-4" d="M503.81,158.46l-.14-1.7v-2.15l-.76-2.34c-.03-.25-.06-.51-.09-.76l.03-2.3-.45-.06c-.41-1.77-.94-3.13-1.31-3.66-.82-1.17-5.22.89-6.73,1.1-1.51.21-3.78.62-3.78.62,0,0-.48,2.06-2.62,2.89-2.13.82-4.88.55-4.88.55l-.86,3.29-1.83,1.8-.14,2.16v2.16l.42,1.38.69-.62.47-2.3v1.88l.42,1.39.69-.61.85-4.18-.07,1.13v2.15l.42,1.39.69-.62.27-1.39v1.32l.14,2.22.29,1.11.83-.36.55-.93.7.18.56-.92-.07-.89h.25l-.1.46-.13,1.85v1.85l.41,1.23,1.11-.31.98.15.69-.46.27-.81.15.5.83-.31.56-.77.7.16.55-.77-.1-1.14.73.12.2-.14v.1s.42,1.38.42,1.38l.83.62.41-.31.42,1.55.69.61.39-.43.16,1.05.56.93.56-.31v1.07l.41,1.38.84-.3.14,2.77v4.77l.14,1.38.56.47.28-1.55.41-1.54.14-1.54.28-1.85v-1.39l.55-1.08.28-1.69.14-1.85-.14-1.85.14-2-.28-1.69.28-1.39v-1.85h0Z"/>
        <g>
          <path class="cls-8" d="M490.35,195.99c-1.25-.5-2.09-1.4-2.09-2.41l-.03.04c0,1.57-1.99,2.84-4.44,2.84s-4.44-1.27-4.44-2.84h-.08c0,1.57-1.99,2.84-4.43,2.84s-4.44-1.27-4.44-2.84v.06c.01,1.57-1.97,2.83-4.42,2.83s-4.43-1.27-4.43-2.83l.03.05c0,1.57-1.99,2.84-4.44,2.84s-4.44-1.27-4.44-2.84l.03-.08c0,1.57-1.99,2.83-4.43,2.83s-4.44-1.26-4.44-2.83l.03-.03c0,.99-.59,1.73-1.8,2.24"/>
          <path class="cls-8" d="M508.06,196.03c-1.25-.5-2.08-1.39-2.08-2.41l-.03.05c0,1.56-1.98,2.83-4.44,2.83s-4.44-1.27-4.44-2.83h-.08c0,1.56-1.98,2.83-4.44,2.83s-4.43-1.27-4.43-2.83v.05c.01,1.57-1.97,2.84-4.42,2.84s-4.44-1.27-4.44-2.84l.03.06c0,1.57-1.99,2.84-4.44,2.84s-4.44-1.27-4.44-2.84l.03-.08c0,1.56-1.98,2.83-4.44,2.83s-4.43-1.27-4.43-2.83l.03-.04c0,.99-.59,1.73-1.8,2.25"/>
        </g>
        <path class="cls-4" d="M497.1,175.35l-.31-.42-.35-.31-.45-.42-.5-.24-.51-.12h-.7l-.23.02.07-.08.56-.3.6-.11c.06,0,.11-.01.17-.02h.04s.6-.23.6-.23l.45.06.3.25.35.3.15.55.16-.42-.06-.67-.1-.54-.2-.49-.4-.42-.4-.31h-.01l-.04-.18-.5-.48-.56-.06-.65.3-.55.24-.55.49-.6.48-.71.43-.66.48-.76.36-.53.21-.83-.27-.8-.25-.81-.36-.86-.48-.7-.36-.71-.42-.75-.67-.61-.6-.42-.48-.59-.67-.56-.66-.65-.84-2.17-.55,1.51,3.81.65.61.7.42.81.73,1.06.67.9.42.81.24.9.24.66.12.95.48.4.18-.85.18-.61.06-.6.06-.66.06-.56.12-.5.3-.4.42-.2.72.06.41v.02s-.16.61-.16.61l-.05.54.05.61.25.36.3.42.41.12.5.06h.41l.35-.12-.3-.07-.41-.05-.25-.36-.2-.36v-.49l.09-.22.16.04.35-.12.26-.36.2-.37.15-.42.2-.43.46.12.7.05.7-.05.56-.18.4-.18.41-.37.3.12.41.25.5.3.56.37.5.36.4.31.1.24-.1.36v.49l.15.42.45.24.09.03.06.34.25.48.15.48-.1.48-.3.3-.35.25-.61.06.3.25.51.06.3-.12.3-.24.4-.31.3-.48.15-.61.05-.67-.05-.54-.12-.23.07-.07.06-.55-.11-.42-.35-.31v-.43l-.21-.36-.3-.31-.4-.48-.5-.36h.25l.36-.06.4-.06.4-.06h.75l.15.18-.25.18.1.49.25.54.4.24.05.18.15.42v.48l-.05.48-.21.37h.21l.35-.3.35-.43.1-.42.11-.49.04-.54-.07-.24.18-.18.15-.48-.1-.48-.2-.31h0Z"/>
        <path class="cls-4" d="M469.34,167.63l-.66.85-.55.67-.58.66-.42.49-.61.61-.76.66-.7.42-.71.37-.86.48-.81.36-.81.25-.83.27-.53-.21-.76-.37-.65-.49-.7-.42-.61-.48-.55-.49-.56-.24-.66-.3-.55.06-.5.48-.04.18h-.02l-.4.31-.4.42-.2.48-.1.55-.05.67.15.42.15-.54.36-.3.3-.25.45-.06.6.24h.02c.09,0,.17.03.29.04l.49.09.55.3.07.08-.22-.02h-.71l-.5.12-.51.24-.45.42-.36.3-.3.42-.2.31-.11.48.15.49.17.18-.07.24.05.54.1.49.11.42.35.42.35.3h.2l-.2-.36-.05-.49v-.49l.15-.42.05-.18.41-.25.25-.54.1-.48-.26-.18.16-.18h.76l.4.06.41.05.35.06h.25l-.5.36-.4.49-.3.3-.2.36v.42l-.36.31-.09.42.04.54.08.07-.12.23-.05.55.05.67.15.61.3.48.4.3.3.24.31.12.5-.06.31-.24-.61-.06-.35-.24-.3-.3-.1-.48.16-.49.25-.49.06-.33.09-.03.45-.25.16-.42v-.49l-.11-.36.11-.24.4-.31.5-.36.56-.36.5-.31.4-.24.3-.12.4.36.41.19.55.18.7.06.71-.06.45-.12.2.42.15.42.2.37.25.36.35.12.16-.03.09.22v.48l-.2.36-.25.36-.4.06-.3.06.35.13h.41l.5-.06.41-.12.3-.42.25-.36.05-.6-.05-.54-.15-.61v-.02s.05-.41.05-.41l-.2-.73-.4-.42-.51-.3-.56-.12-.65-.06-.61-.06-.6-.06-.86-.18.4-.18.96-.49.65-.12.91-.24.8-.25.91-.42,1.06-.67.81-.73.7-.42.65-.61,1.51-3.81-2.17.54h0Z"/>
        <path class="cls-4" d="M503.95,149.84l-.14-1.54-.42-1.23-.55-.92-.7-1.08c-.43-.76-.69-1.5-1.11-1.87-.41-.36-1.96-1.55-3.48-1.51-1.53.02-2.19,1.06-2.35,1.54-.15.49-.39,2.74-.93,2.96-.54.24-1.41-.2-2.01-.67-.6-.46-1.24-1.05-2.04-.54-.8.51-.23,3.89-1.7,4.54-.42.18-1.16-.46-1.58-.44-.41.02-2.11,1.18-2.85.95-.75-.23-1.71-1.42-2.12-1.93-.41-.51-1.02-.9-1.2-1.04l-.67-.64-.4-.64-.07-.18c-.57-1.09-.61-1.98-.64-2.66-.03-.75.2-2.85.1-3.95-.1-1.1-.35-2.57-.41-2.99-.04-.25-.21-.58-.16-1.07v-.03l-.63-.8-.15-.15c-.07-.04-.12-.08-.17-.13-.05-.05-.13-.11-.22-.17l-.32-.25-.23-.16c-.73-.39-1.71-.69-2.47-.94l-.34-.06-.81-.08-.8-.16h-1.35l-.47.16-.27.4-.2.49.47.56.34.56.4.64.44.79.47,1.06.36.75.31.44.36.81v.81l-.62.43-.73.07-.41-.07.7.8.54.49.33.4v.73l-.2.72-.27.56-.27.72-.07.56c-.11.21-.52.41-1.24,1.08-.72.67-.8,1.34-1.05,1.65-.26.31-.83.38-1.05.62-.24.23-.52,1.03-.86,1.11-.33.08-1.7-.47-2.37-.72-.67-.25-.77-.13-1.32.23-.54.36-1.52-.77-1.83-1.29-.31-.52-.02-2.48-.46-3.04-.43-.57-1.37-.34-1.82.02-.46.37-1.65,1.16-2.47.98-.83-.18-.83-3.01-1.42-3.63-.59-.62-1.24-1.18-3.06-.67-1.83.51-2.66,1.78-2.82,2.11l-.56,1.08-.69,1.08-.55.91-.42,1.24-.14,1.54-.13,1.69.13,1.85.29,1.23.55.31.28-.62.42-1.08.42-1.07.41-1.24.28-1.23.28,1.08.27.77.7.31.69-.31.56-.93.28-.92.14-1.23.42,1.39.41,1.07.56.62.83.15.69-.61v-1.07l.84.91.69.47.83.77.7.62h.98l.55.92.56-.15.55.61h.7l.56-.47.41-.92.83.77.7-.16.53.8,1.37.69,1.08,1.2,1.66.34.05.04-.06.3.07.72.13.9.14.45.06.19-.07.41.07.72.1.37.04.12-.14.56v.73l-.07.64-.33.56-.34.4-.47.48-.47.64-.34.8-.2.65-.07.81h-.87l-.88.32-.4.48v.64l.2-.56.47-.32.47-.17.81.08-.74.4-.33.64.4-.32.4-.24h.47l.54-.08-.61.48-.54.8-.27.89.2.48.13-.56.27-.65.34-.25.54-.16h.47l.61-.16-.27.56-.34.57-.4.4-.61.32.47.08.47-.08.47-.24.54-.48-.27.64-.13.57-.27.64-.47.49.54.07.54-.32.48-.65.53-.64-.34.73-.19.64-.34.73-.74.64-.61.25.27.16h.61l.61-.08.61-.16.67-.25.41-.4.61-.48-.14.56-.27.57-.2.57.4-.49.27-.4.4-.89.07.48-.14.73-.13.57-.27.56-.47.48-.34.33-.53.32-.73.24-.81.08-.87.08-1.07-.08-.68-.4-.67-.24.33.4.34.48.47.48.53.41.61.24.74.08.67-.08.74-.08.6-.24.47-.33.54-.64.07.88-.21.65-.2.57-.27.49-.47.56-.61.56-.54.48-.61.24-.6.24-.74.25-.74.08-.94.08-.81.08h-.8l-.74.17-.6.16-.67.41-.54.4-.34.48-.27.49-.07.72.07.56.27.65.34.32.4.16.47.08.47-.16.4-.56-.34.32-.34.24h-.4l-.4-.24-.2-.48v-.49l.06-.56.27-.56.54-.49.68-.24.74-.16.6.08h.81l-.54.32-.41.56-.2.81.07.65.34.48.54.4h.8l-.34-.16-.4-.48-.13-.57.13-.65.4-.48.54-.24.74-.08.8-.25.68-.32.94-.24.67-.48.68-.49.67-.64.47-.65.6-.97-.06.97v.81l-.34.72-.33.65-.54.56-.61.64-.54.48-.47.48-.54.4-.67.17h-.67l-.6-.08-.54-.16-.74-.65.54.65.47.48.67.33.47.24.74-.08.87-.24.61-.32.6-.49.61-.4.61-.72.53-.56-.2.4.07.64-.07.73-.07.81-.27.72-.34.4-.47.24-.74-.08.53.32h.61l.47-.08.6-.32v.56l.07.81.27.89.27.64.14-.56.2-.73.21-.88.13-.72.07-.48.4.48.47.32.47.24.74-.16-.54-.24-.27-.4-.34-.57-.2-.48-.14-.65-.06-.48.13-.81.48.65.4.57.74.4.54.24.54.24.8.08.67-.24.67-.16.54-.49.47-.4.4-.73-.26.32-.41.24-.4.16-.47.16-.47.08-.67-.24-.67-.32-.68-.32-.54-.4-.47-.4-.34-.65-.33-.8-.41-1.05-.26-1.21-.14-1.45-.14-1.85.28.97.33.81.47.89.54.64.74.81.61.65.67.4.8.48.81.41.81.16.47.24.47.33.27.4.2.72v.73l-.27.49-.88.48.67-.08.54-.32.41-.49.27-.65v-.64l-.2-.73-.4-.73-.61-.48-.94-.33.67.08h2.22l.88.25.87.4.61.4.54.56.41.64.2.97v1.29l.27-.97v-.89l-.2-.88-.41-.73-.6-.65-.74-.56-1.01-.4-.81-.33-.94-.08h-2.15l-1.01-.25-.8-.32-.8-.56-.67-.65-.47-.56-.33-.89-.34-.8-.67-.97.67.56.54.56.67.48,1.01.41.94.08,1.14-.08.73-.25.67-.48.74-.88.54-1.05-.4.65-.54.48-.6.33-.74.24-.81.08-1.01-.16-.94-.16-.74-.4-.81-.65-.54-.89-.47-.81-.33-1.04.33.81.47.65.67.65.61.16-.74-.56-.34-.57-.33-.64-.47-1.45.47.88.54.73.54.4.61.33h.67l.47-.25.2-.24-.54.07h-.53l-.61-.32-.41-.56-.33-.81v-1.05l.14-.8.07-.97.2,1.05.47.72.61.72.74.81.4,1.05.27.57.27-.81-.13-.72-.41-.97.61.73.33.81.33,1.29.07-1.13v-.8l-.27-.81-.2-.81.4.41.54.65.4.56.27.56.26.8.2.57.2-.81v-.98l-.2-.8-.33-.64-.54-.97.61.32.34.4.4.64.4.97.27-.08-.14-1.05-.2-.81-.4-.73-.2-.49.47.16.47.25.67.65-.47-.98-.74-1.04-.47-.89-.41-.97-.4-.97-.8-.97-.61-.72-.54-.24.28-1.05.19-.97v-1.2l.02-.21.25-.69.14-1.05.07-.97,2.75-.42,1.08-1.2,1.37-.7.53-.8.69.15.84-.77.41.92.55.47h.7l.55-.62.56.15.56-.92h.98l.69-.61.84-.78.69-.46.84-.92v1.07l.69.62.84-.15.56-.62.42-1.08.42-1.39.14,1.23.28.92.55.92.69.31.7-.31.28-.77.28-1.08.29,1.23.41,1.24.41,1.07.42,1.07.27.62.55-.31.28-1.23.14-1.85-.14-1.7h0Z"/>
        <path class="cls-12" d="M472.41,134.84c.2,0,.26.11.26-.12s-.16-.42-.36-.42-.36.19-.36.42.27.12.46.12Z"/>
      </g>
      <g>
        <path class="cls-6" d="M472.86,51.9c.32,2.04.38,4.35.27,5.31-.11.97.27,3.82-3.01,3.44.96-1.29.8-1.88.65-3.33-.16-1.44-.92-4.19-1.61-4.99-.7-.8-1.08-1.13-1.08-1.13,0,0,.17.81.38,1.78.22.96.1,2.63-.21,3.11-.33.48-1.19,1.12-2.74,1.02,1.02-.91,1.29-1.39,1.18-2.74-.14-1.72-1.51-4.14-2.63-5.42,1.23-.54,5.85,1.02,5.85,1.02,0,0,2.95,1.93,2.95,1.93Z"/>
        <path class="cls-6" d="M489.85,72.6c.94-.41,2.21-1.05,2.98-1.08.78-.03,1.91.86,2.07,1.86.56-1,.78-2.98,1.69-3.73.91-.75,2.71-.56,3.89-.29-1.61-.78-2.9-1.96-4.26-4.41-1.37-2.44-2.65-4.06-3.04-4.93-.37-.89-.19,1.5-.19,1.5l-1.13,3.9-1.77,5.88-.24,1.32h0Z"/>
        <path class="cls-6" d="M478.65,63.66c-1.24,2.41-2.74,8.37-5.31,10.2-2.58,1.83-3.22,2.42-5.42,2.63,1.78.43,4.56.75,4.08,1.67-.49.91-.32.64-.32.64,0,0,1.02-.16,1.23.06.22.21.54,1.29.54,1.83s-.38,1.5.54.64c.91-.86,4.99-8.59,5.05-9.78.05-1.18-.38-7.89-.38-7.89Z"/>
        <path class="cls-6" d="M489.66,73.59c-.43,3.98-2.15,8.96-1.93,13.48.21,4.5.27,7.3,2.04,11.06.48,1.02-.65.97-1.07.22-.43-.76-1.61-5.91-2.9-7.09-1.29-1.18-2.69-1.34-2.69.05s-1.13,1.24-1.34-.16c-.22-1.39-.25-3-4.45-2.47-2.15.27-3.49,1.29-3.49,1.29,0,0,15.84-16.38,15.84-16.38Z"/>
        <g>
          <path class="cls-5" d="M463.3,85.84c4.59-1.36,15.46-4.86,14.96-16.89-.5-12.03-4.15-15.89-9.66-18.89-2.22-1.08-4.58-1.01-4.58-1.01l-.72-.93s-1.21-.5-3.44-1.21c-2.22-.72-6.01-.54-6.94-.4-.93.15-1.14-.57-.21-1.01.93-.43,8.23-.46,9.09-.03.08-1-2-2.22-4.58-2.64-2.58-.44-6.44-.44-7.3-1.58-.85-1.14-1.43-1.86-.71-2.15.71-.29,3.65,1.43,4.65,1,1.01-.43,2.08-.65,2.94-1.36-1.22-1.14-1.43-2.43-.79-3.8.64-1.36,3.29-4.08,10.31-2.86,7.01,1.22,17.68,8.37,21.04,12.6,3.36,4.22,7.44,8.87,6.01,18.11-1.43,9.23-5.72,15.81-10.81,20.04-5.08,4.23-11.31,11.03-11.31,11.03l-1-6.3s-6.95-1.72-6.95-1.72Z"/>
          <line class="cls-1" x1="456.8" y1="38.71" x2="457.94" y2="38.67"/>
        </g>
        <path class="cls-12" d="M462.37,39.65c.01.27.25.48.54.48.29,0,.51-.24.5-.51-.01-.27-.25-.48-.53-.47-.29,0-.51.24-.5.5Z"/>
        <path class="cls-6" d="M478.56,80.84c-6.66,4.27-14.81,7.83-23.19-.22-5.3-5.08-4.15-5.22-5.88-5.36-1.72-.14-2.93.43-3.22,1.07,1.36-.07,3.15-.5,4.58,1.57,1.43,2.08,1.93,4.3,1.15,4.94-.79.65-.22-.43-.94.07-.71.5-.21,1.29,1,2.28,1.22,1.01,1.43.58,1.86.87.43.29,1.57,2.86,2.29,3.36.72.5,8.09,2.86,13.6-.86-5.59,4.15-8.45,4.72-13.25,5.22,3.58,1.15,5.44,1.43,7.01,3.22,1.57,1.79.21,3.15,1.65,3.15s.29-1.29.93-1.29,2.8.86,3.44,2.3c.64,1.43,1.43,4.65,4.58,5.37,3.15.72,3.94-.64,4.08-1.29-1.5-.06-1.64,1.58-3.94-.28-2.29-1.86-4.65-6.8-1.07-12.95,3.57-6.16,6.52-8.51,6.73-10.6-1.21.79-2.01,1-2.01,1l.57-1.57h0Z"/>
        <path class="cls-6" d="M457.55,37.69c1.16.46,1.26.56,1.56.59.29.03,3.79-1.05,5.32-1.07,1.53-.03,3.7,1.32,4.79,4.47.37-2.6-.2-3.08-.9-3.86-.69-.78-1.94-1.27-2.77-1.29.49-.42,1.7-.38,2.08-.4-1.18-.35-2.82-.61-5.08.02-2.26.65-2.98,1.63-3.24,1.62-.27,0-1.75-.09-1.75-.09Z"/>
        <g>
          <path class="cls-6" d="M461.9,31.76c1.29-.1,7.38.35,9.85-2.98-.05,1.08-.73,1.96-1.85,2.66,1.48.19,3.49.16,5.07-.1,1.59-.27,4.06-1.32,4.77-2.72-.2,1.77-1.43,2.31-2.21,2.98-.78.67-.92,1.34-2.71,1.37,1.83.4,4.08,1.29,5.69,1.53,1.61.24,5.05.46,7.51-1.96-.59,2.04-1.39,3-3.43,3.55-2.04.53-2.23.67-3.31.72,1.37,1.4,2.93,3.14,5,5.1,2.07,1.96,5.23,5.15,9.77,2.31-.65,1.9-2.47,2.47-4.51,2.17-2.04-.29-3.97-.75-5.53-1.66-1.56-.91-1.8-1.65-2.44-3.11.4,1.83,1.02,4.05,1.53,4.42-.72-.32-2.56-2.28-2.96-3.27-.61.51-1.07,1.11-1.71,1.3.19-.84.83-1.75-.05-2.99-.89-1.24-2.46-2.59-2.96-3.14.37,1.53.8,2.88.56,3.43-.24.56-1.17,1.88-1.64,2.33.19-.91.41-1.88.41-1.88,0,0-.86,1.64-1.29,2.02-.43.37-1.34.97-3.76.88,2.04-.88,3.54-1.64,3.33-3.9-.22-2.25-.73-3.91-2.69-5.5-1.96-1.59-3.94-2.47-5.36-2.74-1.43-.27-3.26-.27-3.94-.48-.7-.22-1.13-.35-1.13-.36Z"/>
          <path class="cls-1" d="M474.81,32.97c-.62-.05-1.61-.11-1.61-.11"/>
          <path class="cls-1" d="M469.9,31.44c-.59.08-1.05.14-1.56.19"/>
        </g>
      </g>
      <g>
        <path class="cls-12" d="M186.76,140.99h4.05c3.97,0,7.1,2.04,7.1,5.75s-2.77,5.85-6.18,5.85c-.64,0-.79,0-1.32-.05v-1.93c.43.05.56.05.97.05,2.29,0,4.07-1.43,4.07-3.77,0-2.65-1.96-3.84-4.89-3.84h-1.4v16.01h-2.39s0-18.07,0-18.07Z"/>
        <path class="cls-12" d="M208.7,155.26l-1.91-3.26h-3.54v7.05h-2.39v-18.07h4.12c4.17,0,7.15,1.81,7.15,5.45,0,1.93-.81,3.71-3.03,4.76l1.73,2.9c1.63,2.67,2.49,3.1,3.94,3.31l-.25,1.73c-2.88-.08-3.84-.46-5.83-3.87ZM204.67,142.97h-1.42v7.15s1.4.05,2.82.05c2.06,0,3.56-1.35,3.56-3.54,0-2.62-2.09-3.66-4.96-3.66Z"/>
        <path class="cls-12" d="M224.95,159.33c-5.42,0-9.24-3.99-9.24-9.54s4-9.08,9.54-9.08,9.41,3.66,9.41,9.06c0,5.73-3.89,9.57-9.72,9.57ZM225.03,142.79c-4.05,0-6.82,2.9-6.82,6.77,0,4.33,2.72,7.68,6.72,7.68h.23c4.4,0,7.02-2.98,7.02-7.25s-2.75-7.2-7.15-7.2Z"/>
        <path class="cls-12" d="M242.2,159.08l-6.79-18.09h2.6l5.62,15.52,5.5-15.52h2.42l-6.62,18.04s-2.72.05-2.72.05Z"/>
        <path class="cls-12" d="M253.44,159.05v-18.07h9.69v2.01h-7.3v5.88h6.74v1.96h-6.74v6.18h7.91l-.18,2.04s-10.13,0-10.13,0Z"/>
        <path class="cls-12" d="M267.28,140.99h2.6l10.58,14.43v-14.43h2.26v18.07h-2.54l-10.64-14.55v14.55h-2.27v-18.07Z"/>
        <path class="cls-12" d="M295.52,159.31c-5.98,0-9.85-3.51-9.85-9.21s3.84-9.36,9.87-9.36c1.76,0,3.56.25,5.57,1.07l-.2,2.09c-2.14-.76-3.74-1.07-5.45-1.07-4.71,0-7.33,2.67-7.33,7.12,0,4,2.65,7.28,7.58,7.28,1.45,0,3.59-.31,5.98-1.4l-.15,2.16c-2.11.97-4.17,1.32-6.03,1.32Z"/>
        <path class="cls-12" d="M305.13,159.05v-18.07h9.69v2.01h-7.3v5.88h6.74v1.96h-6.74v6.18h7.91l-.18,2.04s-10.13,0-10.13,0Z"/>
        <path class="cls-12" d="M257.39,179.47h-7.33l-1.78,5.11h-2.42l6.49-18.04,2.65-.05,6.95,18.09h-2.62s-1.93-5.11-1.93-5.11ZM250.67,177.56h6.03l-3.13-8.52-2.9,8.52Z"/>
        <path class="cls-12" d="M264.41,184.59v-18.07h2.39v16.03h7.86l-.18,2.04h-10.08Z"/>
        <path class="cls-12" d="M277.56,166.52h4.05c3.97,0,7.1,2.04,7.1,5.75s-2.77,5.85-6.18,5.85c-.64,0-.79,0-1.32-.05v-1.93c.43.05.56.05.97.05,2.29,0,4.07-1.43,4.07-3.77,0-2.65-1.96-3.84-4.89-3.84h-1.4v16h-2.39s0-18.07,0-18.07Z"/>
        <path class="cls-12" d="M291.65,184.59v-18.07h9.7v2.01h-7.3v5.88h6.74v1.96h-6.74v6.18h7.91l-.18,2.04h-10.13Z"/>
        <path class="cls-12" d="M309.33,184.84c-1.48,0-3.18-.23-4.78-.86l-.05-2.16c2.14.74,3.43.92,4.83.92,2.93,0,3.82-1.48,3.82-2.9,0-1.2-.46-2.14-2.82-3.21l-1.43-.64c-3.05-1.32-3.97-2.82-3.94-4.91,0-2.6,1.96-4.81,6.13-4.81,1.12,0,2.57.13,4.05.64l-.2,2.04c-1.6-.48-2.82-.64-3.77-.64-2.67,0-3.69,1.12-3.69,2.57,0,1.22.51,2.06,2.93,3.13l1.43.61c3.08,1.27,3.97,2.95,3.97,4.99,0,2.47-1.73,5.24-6.46,5.24h0Z"/>
        <path class="cls-12" d="M168.5,210.37c-5.98,0-9.85-3.51-9.85-9.21s3.84-9.36,9.87-9.36c1.76,0,3.56.25,5.57,1.07l-.2,2.09c-2.14-.76-3.74-1.07-5.45-1.07-4.71,0-7.33,2.67-7.33,7.12,0,4,2.65,7.28,7.58,7.28,1.45,0,3.59-.31,5.98-1.4l-.15,2.16c-2.11.97-4.17,1.32-6.03,1.32Z"/>
        <path class="cls-12" d="M185.8,210.4c-5.42,0-9.24-3.99-9.24-9.54s4-9.08,9.54-9.08,9.41,3.66,9.41,9.06c0,5.73-3.89,9.57-9.72,9.57ZM185.88,193.86c-4.05,0-6.82,2.9-6.82,6.77,0,4.33,2.72,7.68,6.72,7.68h.23c4.4,0,7.02-2.98,7.02-7.25s-2.75-7.2-7.15-7.2ZM185.77,187.96l-3.46,2.7-1.17-1.25,4.76-3.66,4.58,3.56-1.35,1.35s-3.36-2.7-3.36-2.7Z"/>
        <path class="cls-12" d="M204.32,194.09v16.03h-2.37v-16.03h-5.75v-2.04h14.05l-.15,2.04h-5.78Z"/>
        <path class="cls-12" d="M212.53,210.12v-18.07h9.7v2.01h-7.3v5.88h6.74v1.96h-6.74v6.18h7.91l-.18,2.04h-10.13Z"/>
        <path class="cls-12" d="M236.55,210.17c-2.04,0-3.94,0-6.16-.05v-18.07c1.88-.03,3.16-.03,5.83-.03,5.8,0,10.53,2.82,10.53,8.73s-4.07,9.41-10.2,9.41ZM236.09,194.06c-1.6,0-2.39,0-3.31.03v13.99c1.32.05,2.32.05,3.87.05,4.68,0,7.63-2.6,7.63-7.12,0-4.89-3.69-6.95-8.19-6.95Z"/>
        <path class="cls-12" d="M249.19,198.11l-1.35-.81c1.37-1.53,1.78-2.67,1.78-3.51,0-.58-.23-1.2-.99-1.93.33-.59.89-.89,1.4-.89,1.17,0,1.83,1.14,1.81,2.34,0,.87-.2,2.34-2.65,4.81Z"/>
        <path class="cls-12" d="M261.94,205.01h-7.33l-1.78,5.11h-2.42l6.49-18.04,2.65-.05,6.95,18.09h-2.62s-1.93-5.11-1.93-5.11ZM255.22,203.1h6.03l-3.13-8.52-2.9,8.52Z"/>
        <path class="cls-12" d="M267.53,210.12v-1.78l9.54-14.25h-9.41v-2.04h12.49v1.63l-9.67,14.38h10.58l-.18,2.06s-13.36,0-13.36,0Z"/>
        <path class="cls-12" d="M290.99,210.4c-5.14,0-7.28-2.7-7.28-8.19v-10.15h2.39v9.87c0,4.02,1.22,6.39,5.11,6.39,3.54,0,4.91-2.29,4.91-6.13v-10.13h2.24v10.43c0,4.89-2.39,7.91-7.38,7.91Z"/>
        <path class="cls-12" d="M309.94,206.33l-1.91-3.26h-3.54v7.05h-2.39v-18.07h4.12c4.17,0,7.15,1.81,7.15,5.45,0,1.93-.81,3.72-3.03,4.76l1.73,2.9c1.63,2.67,2.49,3.1,3.94,3.31l-.25,1.73c-2.88-.08-3.84-.46-5.83-3.87ZM305.92,194.04h-1.43v7.15s1.4.05,2.82.05c2.06,0,3.56-1.35,3.56-3.54,0-2.62-2.09-3.66-4.96-3.66Z"/>
      </g>
      <g>
        <g>
          <path class="cls-12" d="M95.18,55.31l-3.29-5.88h-4.74v14.8h-11.83V19.33h13.6c12.52,0,20.81,4.87,20.81,15.05,0,4.62-2.02,8.66-6.51,11l3.1,4.93c3.1,5.06,4.49,5.76,7.65,6.13l-.89,8.22c-11.13-.13-13.41-.89-17.9-9.36ZM89.29,28.56h-2.15v12.65s2.15.13,4.43.13c3.54,0,5.95-2.02,5.95-6.01,0-4.81-3.35-6.77-8.22-6.77Z"/>
          <path class="cls-12" d="M119.64,64.23V19.33h26.81v9.68h-14.99v7.84h13.85v9.49h-13.85v8.09h16.89l-.7,9.8s-28.02,0-28.02,0Z"/>
          <path class="cls-12" d="M178.58,64.86c-15.81,0-25.61-7.59-25.61-23.27,0-14.67,10.37-22.89,25.68-22.89,3.8,0,9.11.63,13.53,1.96l-1.01,9.61c-5.5-1.45-9.42-1.77-12.52-1.77-8.54,0-13.47,4.05-13.47,12.46,0,9.23,5.25,14.17,12.71,14.17,1.2,0,2.72-.13,4.36-.57v-11.95h11.83v13.79c0,3.16.13,5.75.13,5.75-5.75,1.77-10.94,2.72-15.62,2.72Z"/>
          <path class="cls-12" d="M201.72,19.33h11.83v44.9h-11.83V19.33Z"/>
          <path class="cls-12" d="M242.82,64.86c-14.04,0-23.59-9.36-23.59-23.53s9.8-22.64,24.28-22.64,23.53,8.66,23.53,22.07c0,14.36-9.55,24.09-24.22,24.09ZM242.7,28.44c-7.15,0-11.32,5.25-11.32,12.33,0,7.78,4.43,14.42,11.64,14.42h.38c7.53,0,11.51-6.13,11.51-13.72s-4.49-13.03-12.21-13.03Z"/>
          <path class="cls-12" d="M272.73,19.33h13.09l18.85,27.51v-27.51h11.26v44.9h-13.34l-18.59-27.45v27.45h-11.26s0-44.9,0-44.9Z"/>
          <path class="cls-12" d="M202.67,124.6c-3.48,0-9.17-.63-13.22-2.09l-.19-9.74c5.69,1.64,9.8,2.28,12.84,2.28,4.49,0,5.69-1.96,5.69-3.79,0-1.52-.57-2.78-4.3-4.3l-2.66-1.07c-9.42-3.35-11.32-8.16-11.26-13.28.06-7.08,5.25-14.17,17.52-14.17,3.16,0,7.78.38,11.64,1.64l-.95,9.11c-4.24-1.14-7.4-1.45-9.55-1.45-4.68,0-6.01,1.71-6.01,3.67,0,1.64.76,2.91,5.56,4.74l2.66,1.01c8.66,3.1,10.5,7.84,10.5,12.84,0,6.13-3.98,14.61-18.28,14.61Z"/>
          <path class="cls-12" d="M247.31,124.66c-14.42,0-20.36-7.15-20.36-21.63v-23.97h11.83v24.41c0,7.15,2.53,11.07,9.68,11.07,6.01,0,8.28-3.73,8.28-10.56v-24.92h11.32v23.78c0,14.04-6.77,21.82-20.74,21.82Z"/>
          <path class="cls-12" d="M292.9,124.03c-5.75,0-9.68,0-17.27-.06v-44.9h15.43c15.18,0,26.82,7.46,26.82,22.01,0,15.3-9.8,22.96-24.98,22.96ZM291.82,88.67c-1.96,0-2.91,0-4.36.06v25.49c1.64.13,3.29.13,5.25.13,8.22,0,13.03-4.3,13.03-12.33,0-9.11-6.13-13.34-13.91-13.34Z"/>
        </g>
        <polygon class="cls-9" points="146.44 15.73 119.56 15.73 146.44 7.77 146.44 15.73"/>
      </g>
    </g>
  </g>
</svg>