<?xml version="1.0" encoding="UTF-8"?>
<svg id="Calque_1" data-name="Calque 1" xmlns="http://www.w3.org/2000/svg" viewBox="0 0 595.28 255.12">
  <defs>
    <style>
      .cls-1 {
        fill: #1e1e1c;
      }

      .cls-2 {
        fill: #ffcd07;
      }
    </style>
  </defs>
  <g>
    <path class="cls-2" d="M132.57,51.57c-3.14,0-5.77,2.63-5.77,5.77v137.72c0,3.14,2.63,5.77,5.77,5.77s5.77-2.63,5.77-5.77V57.34c0-3.14-2.53-5.77-5.77-5.77Z"/>
    <path class="cls-2" d="M157.99,61.59c-3.14,0-5.77,2.63-5.77,5.77v117.57c0,3.14,2.53,5.77,5.77,5.77s5.77-2.63,5.77-5.77v-117.57c0-3.14-2.53-5.77-5.77-5.77Z"/>
    <path class="cls-2" d="M183.41,83.77c-3.14,0-5.77,2.63-5.77,5.77v73.22c0,3.14,2.63,5.77,5.77,5.77s5.77-2.53,5.77-5.77v-73.22c0-3.24-2.63-5.77-5.77-5.77Z"/>
    <circle class="cls-2" cx="209.16" cy="126.12" r="9.11"/>
    <path class="cls-2" d="M122.25,36.17c1.11-1.52,1.72-3.34,1.72-5.27,0-5.06-4.05-9.11-9.11-9.11s-9.11,4.05-9.11,9.11c0,2.33.91,4.46,2.33,6.08-7.8,9.52-18.13,15.19-22.08,17.22-1.42-3.24-4.66-5.47-8.3-5.47-5.06,0-9.11,4.05-9.11,9.11s4.05,9.11,9.11,9.11c2.03,0,3.95-.71,5.47-1.82,10.03,15.49,12.86,33.72,13.67,42.94-9.22-.81-27.44-3.65-42.94-13.67,1.11-1.52,1.72-3.34,1.72-5.37,0-5.06-4.05-9.11-9.11-9.11s-9.11,4.05-9.11,9.11c0,3.75,2.33,6.99,5.57,8.41-2.23,4.56-8.81,16.41-17.92,22.58-1.62-1.82-4.05-2.84-6.58-2.84-5.06,0-9.11,4.05-9.11,9.11s4.05,9.11,9.11,9.11c2.63,0,4.96-1.11,6.58-2.94,9.11,6.18,15.6,18.03,17.92,22.58-3.24,1.42-5.57,4.66-5.57,8.41,0,5.06,4.05,9.11,9.11,9.11s9.11-4.05,9.11-9.11c0-2.03-.61-3.85-1.72-5.37,15.49-10.03,33.82-12.86,42.94-13.67-.81,9.11-3.65,27.34-13.67,42.94-1.52-1.11-3.44-1.82-5.47-1.82-5.06,0-9.11,4.05-9.11,9.11s4.05,9.11,9.11,9.11c3.75,0,6.99-2.23,8.3-5.47,3.95,2.03,14.18,7.7,22.08,17.22-1.42,1.62-2.33,3.75-2.33,6.08,0,5.06,4.05,9.11,9.11,9.11s9.11-4.05,9.11-9.11c0-2.03-.61-3.85-1.72-5.27-7.8-13.37-20.35-21.98-27.65-26.13,13.77-23.6,13.77-50.33,13.77-51.55v-5.47l-5.47-.1c-1.22,0-27.95-.1-51.55,13.67-3.04-5.57-8.51-14.08-15.9-20.35,7.39-6.38,12.86-14.79,15.9-20.35,23.6,13.77,50.33,13.67,51.55,13.67l5.47-.1v-5.47c0-1.22,0-27.95-13.77-51.55,7.29-4.46,19.85-13.06,27.65-26.43h0Z"/>
  </g>
  <g>
    <path class="cls-1" d="M268.17,152.12c-14.48,0-25.82-10.84-25.82-24.71s11.14-24.61,25.82-24.61,25.82,10.84,25.82,24.61-11.34,24.71-25.82,24.71ZM268.17,109.79c-9.92,0-18.03,7.9-18.03,17.62s8.1,17.72,18.03,17.72,17.72-8,17.72-17.72c.1-9.92-7.7-17.62-17.72-17.62Z"/>
    <path class="cls-1" d="M319.21,152.02c-10.94,0-18.63-7.7-18.63-18.63s7.6-18.84,18.63-18.84c6.48,0,11.65,2.03,15.09,5.87l-4.05,4.86c-2.73-2.63-6.28-4.15-10.43-4.15h-.3c-6.68,0-11.34,5.06-11.34,12.25s4.66,12.25,11.34,12.25c4.66,0,8.51-1.52,11.04-4.35l4.15,4.15c-3.34,4.25-8.71,6.58-15.49,6.58h0Z"/>
    <path class="cls-1" d="M358.71,152.02c-10.94,0-18.63-7.7-18.63-18.63s7.6-18.84,18.63-18.84c6.48,0,11.65,2.03,15.09,5.87l-4.05,4.86c-2.73-2.63-6.28-4.15-10.43-4.15h-.3c-6.68,0-11.34,5.06-11.34,12.25s4.66,12.25,11.34,12.25c4.66,0,8.51-1.52,11.04-4.35l4.15,4.15c-3.34,4.25-8.71,6.58-15.49,6.58h0Z"/>
    <path class="cls-1" d="M383.32,151.72v-36.86h7.49v36.86h-7.49ZM387.06,108.48c-2.53,0-4.46-1.92-4.46-4.56s1.92-4.66,4.46-4.66,4.46,2.03,4.46,4.66-1.92,4.56-4.46,4.56Z"/>
    <path class="cls-1" d="M416.23,152.12c-2.43,0-10.23-.81-10.23-10.63v-19.65h-5.27v-5.57h5.27v-10.23h7.49v10.23h11.04v5.57h-11.04v18.23c0,3.65,1.32,5.27,4.25,5.27,1.52,0,3.24-.51,5.47-1.52l1.92,5.67c-2.94,1.72-5.97,2.63-8.91,2.63h0Z"/>
    <path class="cls-1" d="M444.28,152.12c-7.6,0-12.86-4.66-12.86-11.34s5.27-10.94,13.87-11.04h11.54v-1.42c0-4.96-3.24-7.8-9.22-7.8-3.54,0-7.29,1.22-10.94,3.65l-3.04-5.16c5.27-3.04,8.91-4.56,15.7-4.56,9.42,0,14.79,4.66,14.89,12.86l.1,24.3h-7.39v-4.66l-1.62,1.52c-2.63,2.33-6.48,3.65-11.04,3.65h0ZM446.41,135.11c-5.57,0-8,1.62-8,5.27s2.94,5.77,7.49,5.77c5.87,0,10.43-3.04,10.84-7.29v-3.75h-10.33Z"/>
    <path class="cls-1" d="M504.63,151.72v-20.76c0-5.77-3.54-9.32-9.22-9.32-6.08.1-10.23,4.05-10.84,10.43v19.65h-7.6v-36.86h7.6v7.29l1.82-2.33c2.63-3.44,6.78-5.27,12.25-5.27,8.41,0,13.67,5.47,13.67,14.18v22.99h-7.7Z"/>
    <path class="cls-1" d="M524.89,151.72v-36.86h7.49v36.86h-7.49ZM528.64,108.48c-2.53,0-4.46-1.92-4.46-4.56s1.92-4.66,4.46-4.66,4.46,2.03,4.46,4.66c0,2.63-1.92,4.56-4.46,4.56Z"/>
    <path class="cls-1" d="M561.45,152.02c-11.34,0-18.84-7.49-18.84-18.63s7.7-18.73,18.63-18.84c5.67,0,9.92,1.62,12.96,4.76,3.44,3.65,4.86,9.32,4.35,16.81h-28.36l.41,1.22c1.52,5.27,5.97,8.61,11.65,8.61,4.05,0,7.8-1.52,10.53-4.25l3.95,4.15c-3.85,4.05-9.11,6.18-15.29,6.18h0ZM561.35,120.53c-5.77,0-9.82,3.34-11.04,9.01l-.2,1.22h22.08l-.1-1.11c-.71-5.77-4.66-9.11-10.73-9.11h0Z"/>
    <path class="cls-1" d="M242.35,88.73l.1-26.94,4.96.1-.1,22.28,11.54.1-.1,4.46h-16.41Z"/>
    <path class="cls-1" d="M268.27,88.93c-4.25,0-7.29-2.63-7.29-6.48s2.94-6.18,7.8-6.28h5.77l.1-.41c0-2.53-1.62-3.85-4.56-3.85-1.92,0-3.85.71-5.77,2.03l-.2.2-1.92-3.44h.2c2.94-1.72,4.96-2.53,8.71-2.53,5.27,0,8.3,2.63,8.3,7.29v13.47l-4.76-.1.1-1.92v-.2l-.1.1c-1.52,1.42-3.65,2.13-6.38,2.13ZM269.49,79.82c-2.84,0-3.95.71-3.95,2.43s1.42,2.84,3.65,2.84c2.94,0,5.27-1.52,5.47-3.65v-1.52l-5.16-.1Z"/>
    <path class="cls-1" d="M294.71,88.73l.1-26.94,10.94.1c6.89,0,10.84,3.34,10.84,9.22,0,4.15-1.92,7.19-5.27,8.61l5.87,9.01h-5.57l-4.76-7.9h-7.09l-.1,8.1-4.96-.2ZM299.67,76.27l6.08.1c4.15,0,6.18-1.72,6.18-5.16,0-3.24-2.13-4.96-6.18-4.96h-6.08v10.03Z"/>
    <path class="cls-1" d="M330.45,88.93c-6.28,0-10.43-4.15-10.43-10.33s4.25-10.43,10.33-10.43c3.14,0,5.57.91,7.19,2.63,1.92,2.03,2.73,5.27,2.43,9.42v.3l-14.99-.1c.71,2.84,2.94,4.66,5.87,4.66,2.13,0,4.05-.81,5.57-2.23l.2-.2,2.53,2.84-.2.1c-2.13,2.13-5.06,3.34-8.51,3.34h0ZM330.35,72.02c-2.94,0-5.06,1.82-5.67,4.66l10.94.1c-.1-3.04-2.13-4.76-5.27-4.76ZM327.21,65.84l4.35-6.08,4.96,2.23-5.06,3.95h-4.25v-.1Z"/>
    <path class="cls-1" d="M352.63,96.22c-3.04,0-5.87-.91-8.51-2.63l-.2-.1,2.13-3.54.1.2c2.03,1.52,3.95,2.13,6.18,2.13,3.75,0,6.08-2.13,6.08-5.47v-1.92l-.1.2c-1.42,1.82-3.65,2.73-6.28,2.73-5.57,0-9.22-3.95-9.22-9.92s3.65-9.72,9.11-9.72c2.84,0,4.96.91,6.48,2.73l.1.2v-2.94l4.76.1-.1,18.33c.1,5.87-4.05,9.62-10.53,9.62h0ZM353.04,72.02c-3.24,0-5.57,2.43-5.67,5.97,0,3.54,2.33,5.97,5.67,5.97s5.57-2.43,5.57-5.97-2.33-5.97-5.57-5.97Z"/>
    <path class="cls-1" d="M368.83,88.73l.1-20.56,4.76.1-.1,20.46h-4.76ZM371.26,65.54c-1.52,0-2.73-1.22-2.73-2.84s1.22-2.84,2.73-2.84,2.73,1.22,2.73,2.84-1.11,2.84-2.73,2.84Z"/>
    <path class="cls-1" d="M388.48,88.93c-6.28,0-10.73-4.25-10.73-10.43s4.25-10.43,10.73-10.43,10.63,4.25,10.63,10.43-4.35,10.43-10.63,10.43ZM388.48,72.22c-3.54,0-5.97,2.63-5.97,6.28s2.43,6.28,5.97,6.28,5.87-2.63,5.87-6.28c0-3.65-2.43-6.28-5.87-6.28Z"/>
    <path class="cls-1" d="M403.16,88.73l.1-20.56,4.86.1-.1,3.04v.3l.2-.2c1.52-2.13,3.85-3.24,7.09-3.24,4.76,0,7.7,3.04,7.7,7.9v12.66h-4.96l.1-11.44c0-2.94-1.72-4.66-4.66-4.66s-5.16,2.03-5.47,5.27v10.94l-4.86-.1Z"/>
    <path class="cls-1" d="M250.76,165.09c4.96,0,7.8,2.43,7.8,6.68s-2.84,6.99-7.8,6.99h-4.56v5.97h-3.34v-19.65h7.9ZM246.2,175.82h4.35c3.04,0,4.76-1.32,4.76-3.95s-1.72-3.85-4.76-3.85h-4.35v7.8Z"/>
    <path class="cls-1" d="M268.17,186.76c-.91,2.33-2.63,3.54-4.86,3.54-1.32,0-2.43-.41-3.44-1.22l1.42-2.53c.71.51,1.22.71,1.92.71,1.01,0,1.82-.51,2.23-1.62l.51-1.11-6.18-14.79h3.34l4.46,11.34,4.15-11.34h3.24l-6.78,17.01Z"/>
    <path class="cls-1" d="M280.63,172.78c1.01-2.03,2.84-3.04,5.16-3.04v3.04c-3.04-.2-4.96,1.62-5.16,4.15v7.8h-3.24v-14.99h3.24v3.04Z"/>
    <path class="cls-1" d="M301.69,178.45h-11.34c.51,2.33,2.23,3.75,4.66,3.75,1.62,0,3.14-.61,4.25-1.72l1.72,1.82c-1.42,1.62-3.65,2.53-6.18,2.53-4.66,0-7.6-3.04-7.6-7.6s3.14-7.6,7.6-7.6c5.16,0,7.29,3.44,6.89,8.81h0ZM298.86,176.13c-.1-2.43-1.72-3.85-4.15-3.85s-4.05,1.52-4.35,3.85h8.51ZM292.58,167.62l2.94-4.15,3.34,1.42-3.44,2.73h-2.84Z"/>
    <path class="cls-1" d="M319.42,175.42v9.32h-3.24v-8.41c0-2.23-1.32-3.65-3.65-3.65s-4.05,1.72-4.25,4.05v8h-3.24v-14.99h3.24v2.84c1.11-2.13,2.94-2.94,5.47-2.94,3.54,0,5.67,2.23,5.67,5.77Z"/>
    <path class="cls-1" d="M336.83,178.45h-11.34c.51,2.33,2.23,3.75,4.66,3.75,1.62,0,3.14-.61,4.25-1.72l1.72,1.82c-1.42,1.62-3.65,2.53-6.18,2.53-4.66,0-7.6-3.04-7.6-7.6s3.14-7.6,7.6-7.6c5.16,0,7.29,3.44,6.89,8.81h0ZM334,176.13c-.1-2.43-1.72-3.85-4.15-3.85s-4.05,1.52-4.35,3.85h8.51ZM327.82,167.62l2.94-4.15,3.34,1.42-3.44,2.73h-2.84Z"/>
    <path class="cls-1" d="M353.44,178.45h-11.34c.51,2.33,2.23,3.75,4.66,3.75,1.62,0,3.14-.61,4.25-1.72l1.72,1.82c-1.42,1.62-3.65,2.53-6.18,2.53-4.66,0-7.6-3.04-7.6-7.6s3.14-7.6,7.6-7.6c5.06,0,7.19,3.44,6.89,8.81h0ZM350.61,176.13c-.1-2.43-1.72-3.85-4.15-3.85s-4.05,1.52-4.35,3.85h8.51Z"/>
    <path class="cls-1" d="M366.5,171.16l-1.22,2.43c-1.32-.81-2.94-1.32-4.25-1.32-1.22,0-2.23.41-2.23,1.52,0,2.73,8,1.22,7.9,6.68,0,3.04-2.73,4.46-5.77,4.46-2.23,0-4.56-.71-5.97-2.13l1.11-2.33c1.32,1.11,3.34,1.82,4.96,1.82,1.42,0,2.43-.51,2.43-1.62,0-3.04-7.9-1.32-7.9-6.78,0-3.04,2.63-4.35,5.47-4.35,2.13.1,4.05.61,5.47,1.62h0Z"/>
    <path class="cls-1" d="M376.53,177.24v-2.23h6.89v2.23h-6.89Z"/>
    <path class="cls-1" d="M412.78,184.73v-14.68l-6.18,12.66h-2.13l-6.18-12.66v14.68h-3.14v-19.65h3.95l6.48,13.06,6.48-13.06h3.95v19.65h-3.24Z"/>
    <path class="cls-1" d="M434.05,178.45h-11.34c.51,2.33,2.23,3.75,4.66,3.75,1.62,0,3.14-.61,4.25-1.72l1.72,1.82c-1.42,1.62-3.65,2.53-6.18,2.53-4.66,0-7.6-3.04-7.6-7.6s3.14-7.6,7.6-7.6c5.06,0,7.29,3.44,6.89,8.81h0ZM431.22,176.13c-.1-2.43-1.72-3.85-4.15-3.85s-4.05,1.52-4.35,3.85h8.51ZM424.94,167.62l2.94-4.15,3.34,1.42-3.44,2.73h-2.84Z"/>
    <path class="cls-1" d="M451.67,184.73h-3.24v-2.53c-1.11,1.72-2.84,2.73-5.27,2.73-4.25,0-7.19-3.14-7.19-7.7s2.94-7.6,7.09-7.6c2.43,0,4.25,1.01,5.27,2.73v-8.51h3.24l.1,20.86h0ZM448.43,177.34c0-2.94-1.92-4.96-4.56-4.96s-4.56,2.03-4.66,4.96c0,2.84,1.92,4.86,4.66,4.86s4.56-2.03,4.56-4.86Z"/>
    <path class="cls-1" d="M460.08,165.49c0,1.11-.81,1.92-1.92,1.92s-1.92-.81-1.92-1.92.81-1.92,1.92-1.92,1.92.81,1.92,1.92ZM456.53,184.73v-14.99h3.24v14.99h-3.24Z"/>
    <path class="cls-1" d="M473.04,183.72c-1.22.71-2.43,1.11-3.65,1.11-2.23,0-4.15-1.32-4.15-4.35v-7.8h-2.13v-2.43h2.13v-4.15h3.24v4.15h4.46v2.43h-4.46v7.19c0,1.52.61,2.03,1.62,2.03.71,0,1.42-.2,2.23-.61l.71,2.43Z"/>
    <path class="cls-1" d="M489.04,178.45h-11.34c.51,2.33,2.23,3.75,4.66,3.75,1.62,0,3.14-.61,4.25-1.72l1.72,1.82c-1.42,1.62-3.65,2.53-6.18,2.53-4.66,0-7.6-3.04-7.6-7.6s3.14-7.6,7.6-7.6c5.06,0,7.19,3.44,6.89,8.81h0ZM486.2,176.13c-.1-2.43-1.72-3.85-4.15-3.85s-4.05,1.52-4.35,3.85h8.51Z"/>
    <path class="cls-1" d="M495.62,172.78c1.01-2.03,2.84-3.04,5.16-3.04v3.04c-3.04-.2-4.96,1.62-5.16,4.15v7.8h-3.24v-14.99h3.24v3.04Z"/>
    <path class="cls-1" d="M506.66,172.78c1.01-2.03,2.84-3.04,5.16-3.04v3.04c-3.04-.2-4.96,1.62-5.16,4.15v7.8h-3.24v-14.99h3.24v3.04Z"/>
    <path class="cls-1" d="M522.86,182.91c-1.01,1.32-2.84,1.92-4.96,1.92-3.24,0-5.27-2.03-5.27-4.66s2.03-4.46,5.67-4.46h4.56v-.41c0-1.92-1.22-3.04-3.54-3.04-1.42,0-2.94.51-4.46,1.52l-1.32-2.23c2.03-1.22,3.65-1.92,6.48-1.92,3.85,0,5.97,1.92,6.08,5.27v9.82h-3.14l-.1-1.82h0ZM522.86,179.47v-1.42h-4.05c-2.13,0-3.04.61-3.04,2.03,0,1.32,1.11,2.23,2.94,2.23,2.23,0,4.05-1.22,4.15-2.84Z"/>
    <path class="cls-1" d="M544.74,175.42v9.32h-3.24v-8.41c0-2.23-1.32-3.65-3.65-3.65s-4.05,1.72-4.25,4.05v8h-3.14v-14.99h3.24v2.84c1.11-2.13,2.94-2.94,5.47-2.94,3.44,0,5.57,2.23,5.57,5.77Z"/>
    <path class="cls-1" d="M562.26,178.45h-11.34c.51,2.33,2.23,3.75,4.66,3.75,1.62,0,3.14-.61,4.25-1.72l1.72,1.82c-1.42,1.62-3.65,2.53-6.18,2.53-4.66,0-7.6-3.04-7.6-7.6s3.14-7.6,7.6-7.6c5.06,0,7.29,3.44,6.89,8.81ZM559.42,176.13c-.1-2.43-1.72-3.85-4.15-3.85s-4.05,1.52-4.35,3.85h8.51ZM553.14,167.62l2.94-4.15,3.34,1.42-3.44,2.73h-2.84Z"/>
    <path class="cls-1" d="M578.76,178.45h-11.34c.51,2.33,2.23,3.75,4.66,3.75,1.62,0,3.14-.61,4.25-1.72l1.72,1.82c-1.42,1.62-3.65,2.53-6.18,2.53-4.66,0-7.6-3.04-7.6-7.6s3.14-7.6,7.6-7.6c5.16,0,7.29,3.44,6.89,8.81ZM575.93,176.13c-.1-2.43-1.72-3.85-4.15-3.85s-4.05,1.52-4.35,3.85h8.51Z"/>
  </g>
</svg>